<svg xmlns="http://www.w3.org/2000/svg" xmlns:xlink="http://www.w3.org/1999/xlink" width="115.791" height="100.643" viewBox="0 0 115.791 100.643"><defs><linearGradient id="a" x1="0.5" x2="0.5" y2="1" gradientUnits="objectBoundingBox"><stop offset="0" stop-color="#500b8b"/><stop offset="1" stop-color="#d016d6"/></linearGradient></defs><g transform="translate(0 -25.165)"><g transform="translate(8.926 25.165)"><path d="M135.04,56.117a2.154,2.154,0,0,0-1.117-.061H133.9l-8.174,1.722A50.311,50.311,0,0,0,29.7,63.8a2.155,2.155,0,0,0,4.19,1,46,46,0,0,1,87.56-6.164l-7.585,1.589a2.155,2.155,0,0,0-1.2,3.552l6.9,7.657,6.73,7.512a2.155,2.155,0,0,0,3.756-.662l3.19-9.728,3.178-9.715A2.155,2.155,0,0,0,135.04,56.117Z" transform="translate(-29.658 -25.165)" fill="url(#a)"/></g><g transform="translate(54.006 101.933)"><path d="M191.019,282.1c-4.238-1.264-8.271-2.468-9.547-1.541h0a4.587,4.587,0,0,0-1.758,5.381,32.614,32.614,0,0,0,3.612.193,32.25,32.25,0,0,0,12.761-2.612C194.414,283.109,192.7,282.6,191.019,282.1Z" transform="translate(-179.437 -280.229)" fill="url(#a)"/></g><g transform="translate(75.856 48.784)"><path d="M252.326,103.639c-1.3,5.935,1.95,7.934,6.26,10.582a61.864,61.864,0,0,1,5.3,3.527A32.5,32.5,0,0,0,252.326,103.639Z" transform="translate(-252.036 -103.639)" fill="url(#a)"/></g><g transform="translate(37.778 43.138)"><path d="M177.78,113.616c-3.01-4.141-6.814-6.489-10.089-8.5-6.417-3.949-11.148-6.862-8.006-17a32.226,32.226,0,0,0-14.05-3.239h0a32.217,32.217,0,0,0-19.8,6.766c1.132,3.937,4.021,6.429,6.646,8.68,3.323,2.853,6.3,5.406,6.381,10.041.06,3.491-1.625,5.55-3.491,7.837a14.269,14.269,0,0,0-3.275,5.706,20.873,20.873,0,0,0-.06,4.25c.132,3.3.277,7.115-.975,10.028a6.585,6.585,0,0,1-5.538,4.322,32.25,32.25,0,0,0,11.594,5.875,8.7,8.7,0,0,1,3.913-8.2c3.142-2.3,8.259-.783,13.64.831,3.852,1.2,7.873,2.348,10.474,1.962A32.409,32.409,0,0,0,177.78,113.616Z" transform="translate(-125.519 -84.879)" fill="url(#a)"/></g><g transform="translate(25.545 53.311)"><path d="M101.01,127.5c-2.685-2.3-5.634-4.864-7.344-8.825a32.361,32.361,0,0,0-2.2,41.739c4.37,1.77,6.212,1.132,6.886-.433.843-1.962.722-5.213.614-8.018a22.2,22.2,0,0,1,.2-5.526,18.058,18.058,0,0,1,4.19-7.56c1.3-1.6,2.48-3.034,2.408-4.816C105.765,131.549,103.5,129.634,101.01,127.5Z" transform="translate(-84.877 -118.679)" fill="url(#a)"/><path d="M114.079,118.679h0Z" transform="translate(-105.29 -118.679)" fill="url(#a)"/></g><g transform="translate(0 71.196)"><g transform="translate(0)"><path d="M105.232,191.507h0a2.155,2.155,0,0,0-2.6,1.592l0,.009a46,46,0,0,1-87.56,6.14l7.585-1.589a2.155,2.155,0,0,0,1.2-3.551l-6.9-7.657-6.73-7.512a2.155,2.155,0,0,0-3.756.662l-3.19,9.727L.108,199.043A2.155,2.155,0,0,0,2.6,201.824l8.174-1.722a50.311,50.311,0,0,0,96.023-6.02A2.155,2.155,0,0,0,105.232,191.507Z" transform="translate(0 -178.103)" fill="url(#a)"/></g></g></g></svg>