<svg xmlns="http://www.w3.org/2000/svg" width="86.899" height="71" viewBox="0 0 86.899 71"><g transform="translate(-126 -1034)"><g transform="translate(182.247 1101.413) rotate(-135)" fill="#0cd3e9" stroke="#0cd3e9" stroke-width="1"><circle cx="4.168" cy="4.168" r="4.168" stroke="none"/><circle cx="4.168" cy="4.168" r="3.668" fill="none"/></g><g transform="translate(126 1055.504)" fill="#0cd3e9" stroke="#0cd3e9" stroke-width="1"><ellipse cx="4.168" cy="4.168" rx="4.168" ry="4.168" stroke="none"/><ellipse cx="4.168" cy="4.168" rx="3.668" ry="3.668" fill="none"/></g><g transform="translate(198.752 1100.234) rotate(-135)" fill="#0cd3e9" stroke="#0cd3e9" stroke-width="1"><circle cx="4.168" cy="4.168" r="4.168" stroke="none"/><circle cx="4.168" cy="4.168" r="3.668" fill="none"/></g><g transform="translate(140.171 1056.338)" fill="#0cd3e9" stroke="#0cd3e9" stroke-width="1"><ellipse cx="4.168" cy="4.168" rx="4.168" ry="4.168" stroke="none"/><ellipse cx="4.168" cy="4.168" rx="3.668" ry="3.668" fill="none"/></g><g transform="translate(189.321 1089.623) rotate(-135)" fill="#0cd3e9" stroke="#0cd3e9" stroke-width="1"><circle cx="4.168" cy="4.168" r="4.168" stroke="none"/><circle cx="4.168" cy="4.168" r="3.668" fill="none"/></g><g transform="translate(156.844 1050.503)" fill="#0cd3e9" stroke="#0cd3e9" stroke-width="1"><ellipse cx="4.168" cy="4.168" rx="4.168" ry="4.168" stroke="none"/><ellipse cx="4.168" cy="4.168" rx="3.668" ry="3.668" fill="none"/></g><g transform="translate(173.405 1081.96) rotate(-135)" fill="#0cd3e9" stroke="#0cd3e9" stroke-width="1"><circle cx="4.168" cy="4.168" r="4.168" stroke="none"/><circle cx="4.168" cy="4.168" r="3.668" fill="none"/></g><g transform="translate(146.841 1068.009)" fill="#0cd3e9" stroke="#0cd3e9" stroke-width="1"><ellipse cx="4.168" cy="4.168" rx="4.168" ry="4.168" stroke="none"/><ellipse cx="4.168" cy="4.168" rx="3.668" ry="3.668" fill="none"/></g><g transform="translate(192.857 1076.655) rotate(-135)" fill="#0cd3e9" stroke="#0cd3e9" stroke-width="1"><circle cx="4.168" cy="4.168" r="4.168" stroke="none"/><circle cx="4.168" cy="4.168" r="3.668" fill="none"/></g><g transform="translate(128.501 1069.676)" fill="#0cd3e9" stroke="#0cd3e9" stroke-width="1"><ellipse cx="4.168" cy="4.168" rx="4.168" ry="4.168" stroke="none"/><ellipse cx="4.168" cy="4.168" rx="3.668" ry="3.668" fill="none"/></g><g transform="translate(207.005 1088.444) rotate(-135)" fill="#0cd3e9" stroke="#0cd3e9" stroke-width="1"><circle cx="4.168" cy="4.168" r="4.168" stroke="none"/><circle cx="4.168" cy="4.168" r="3.668" fill="none"/></g><g transform="translate(136.837 1043)" fill="#0cd3e9" stroke="#0cd3e9" stroke-width="1"><ellipse cx="4.168" cy="4.168" rx="4.168" ry="4.168" stroke="none"/><ellipse cx="4.168" cy="4.168" rx="3.668" ry="3.668" fill="none"/></g><line y1="5.354" x2="9.369" transform="translate(148.085 1055.715)" fill="none" stroke="#0cd3e9" stroke-width="1"/><line y1="5.354" x2="9.369" transform="translate(183.285 1084.468) rotate(-135)" fill="none" stroke="#0cd3e9" stroke-width="1"/><line x2="2.677" y2="5.354" transform="translate(146.746 1063.746)" fill="none" stroke="#0cd3e9" stroke-width="1"/><line x2="2.677" y2="5.354" transform="translate(189.91 1079.736) rotate(-135)" fill="none" stroke="#0cd3e9" stroke-width="1"/><line x2="12.046" transform="translate(134.7 1071.777)" fill="none" stroke="#0cd3e9" stroke-width="1"/><line x2="12.046" transform="translate(204.107 1082.575) rotate(-135)" fill="none" stroke="#0cd3e9" stroke-width="1"/><line x1="2.677" y1="9.369" transform="translate(141.392 1049.023)" fill="none" stroke="#0cd3e9" stroke-width="1"/><line x1="2.677" y1="9.369" transform="translate(183.285 1093.932) rotate(-135)" fill="none" stroke="#0cd3e9" stroke-width="1"/><line y1="8.031" x2="12.046" transform="translate(128.008 1050.362)" fill="none" stroke="#0cd3e9" stroke-width="1"/><line y1="8.031" x2="12.046" transform="translate(193.696 1102.451) rotate(-135)" fill="none" stroke="#0cd3e9" stroke-width="1"/><line x1="22" y1="2" transform="translate(151.5 1073.5)" fill="none" stroke="#0cd3e9" stroke-width="1"/><g transform="translate(135 1034)" fill="none" stroke="#43a0f2" stroke-width="2"><ellipse cx="36.5" cy="35.5" rx="36.5" ry="35.5" stroke="none"/><ellipse cx="36.5" cy="35.5" rx="35.5" ry="34.5" fill="none"/></g></g></svg>