<svg xmlns="http://www.w3.org/2000/svg" xmlns:xlink="http://www.w3.org/1999/xlink" width="95.08" height="102.686" viewBox="0 0 95.08 102.686"><defs><linearGradient id="a" x1="0.5" x2="0.5" y2="1" gradientUnits="objectBoundingBox"><stop offset="0" stop-color="#500b8b"/><stop offset="1" stop-color="#d016d6"/></linearGradient></defs><path d="M73.158,68.135l-8.31,7.123L87.374,94.566,84.3,97.639,61.5,78.095l-19.863.087-.08-.068L18.775,97.642,15.7,94.57,38.227,75.262l-8.31-7.123L15.409,55.866V34.8L4,44.837V98.1a7.585,7.585,0,0,0,7.621,7.583H91.458A7.607,7.607,0,0,0,99.08,98.1V44.837L87.671,34.8V55.866L73.162,68.138ZM38.573,14.409,51.538,3,64.5,14.409Zm-15.558,3.8a3.8,3.8,0,0,0-3.8,3.811V53.2L42.989,73.417H59.8L83.864,53.2V22.023a3.826,3.826,0,0,0-3.8-3.811H23.015Z" transform="translate(-4 -3)" fill="url(#a)"/></svg>