<svg xmlns="http://www.w3.org/2000/svg" width="82.266" height="59.348" viewBox="0 0 82.266 59.348"><g transform="translate(-455.817 -628.486)"><line x2="14.391" y2="8.667" transform="translate(456.333 678.27)" fill="none" stroke="#0cd3e9" stroke-width="2"/><line x2="14.391" y2="8.667" transform="translate(456.333 673.542)" fill="none" stroke="#0cd3e9" stroke-width="2"/><line y1="10.243" x2="20.787" transform="translate(470.724 676.694)" fill="none" stroke="#0cd3e9" stroke-width="2"/><line y1="10.243" x2="20.787" transform="translate(470.724 671.966)" fill="none" stroke="#0cd3e9" stroke-width="2"/><line y1="10.243" x2="20.787" transform="translate(473.123 666.45)" fill="none" stroke="#0cd3e9" stroke-width="2"/><line y1="10.243" x2="20.787" transform="translate(473.123 661.723)" fill="none" stroke="#0cd3e9" stroke-width="2"/><line y1="10.243" x2="19.988" transform="translate(456.333 668.026)" fill="none" stroke="#0cd3e9" stroke-width="2"/><line y1="10.243" x2="19.988" transform="translate(456.333 663.299)" fill="none" stroke="#0cd3e9" stroke-width="2"/><line x2="14.391" y2="8.667" transform="translate(476.321 668.026)" fill="none" stroke="#0cd3e9" stroke-width="2"/><line x2="11.993" y2="7.092" transform="translate(501.905 668.814)" fill="none" stroke="#0cd3e9" stroke-width="2"/><line x2="14.391" y2="8.667" transform="translate(476.321 663.299)" fill="none" stroke="#0cd3e9" stroke-width="2"/><path d="M.21,29.916,0,0" transform="matrix(1, -0.017, 0.017, 1, 501.375, 639.029)" fill="none" stroke="#0cd3e9" stroke-width="2"/><line x1="0.8" y1="32.306" transform="translate(513.098 643.6)" fill="none" stroke="#0cd3e9" stroke-width="2"/><line x2="11.993" y2="5.516" transform="translate(501.105 638.872)" fill="none" stroke="#0cd3e9" stroke-width="2"/><line x2="11.993" y2="5.516" transform="translate(525.091 629.417)" fill="none" stroke="#0cd3e9" stroke-width="2"/><line y1="9.455" x2="23.985" transform="translate(501.105 629.417)" fill="none" stroke="#0cd3e9" stroke-width="2"/><path d="M0,7.648,23.985-1.4" transform="translate(513.098 636.74)" fill="none" stroke="#0cd3e9" stroke-width="2"/><path d="M0,0V31.912" transform="translate(537.083 634.932)" fill="none" stroke="#0cd3e9" stroke-width="2"/><line y1="9.455" x2="23.186" transform="translate(513.897 666.45)" fill="none" stroke="#0cd3e9" stroke-width="2"/></g></svg>