<svg xmlns="http://www.w3.org/2000/svg" xmlns:xlink="http://www.w3.org/1999/xlink" width="55.406" height="58.817" viewBox="0 0 55.406 58.817"><defs><filter id="a" x="11" y="4.159" width="25.489" height="54.658" filterUnits="userSpaceOnUse"><feOffset dy="3" input="SourceAlpha"/><feGaussianBlur stdDeviation="3" result="b"/><feFlood flood-color="#000592"/><feComposite operator="in" in2="b"/><feComposite in="SourceGraphic"/></filter><filter id="c" x="18.489" y="4.159" width="24.917" height="54.658" filterUnits="userSpaceOnUse"><feOffset dy="3" input="SourceAlpha"/><feGaussianBlur stdDeviation="3" result="d"/><feFlood flood-color="#000592"/><feComposite operator="in" in2="d"/><feComposite in="SourceGraphic"/></filter></defs><g transform="translate(-143 -630.582)"><g transform="translate(163 640.741)"><g transform="matrix(1, 0, 0, 1, -20, -10.16)" filter="url(#a)"><path d="M550.226,1309.563c-.1.339-.2.675-.375,1.251-16.222,36.783.375,35.4.375,35.4" transform="translate(-522.74 -1299.4)" fill="#13a1e1"/></g><g transform="matrix(1, 0, 0, 1, -20, -10.16)" filter="url(#c)"><path d="M542.737,1309.563c.095.339.188.675.346,1.251,14.983,36.783-.346,35.4-.346,35.4" transform="translate(-515.25 -1299.4)" fill="#13a1e1"/></g></g><g transform="translate(144 631.509)"><line x2="26.703" y2="12.517" transform="translate(0 43.393)" fill="none" stroke="#0cd3e9" stroke-width="2"/><line y1="12.517" x2="26.703" transform="translate(26.703 43.393)" fill="none" stroke="#0cd3e9" stroke-width="2"/><line y1="32.545" transform="translate(53.407 10.848)" fill="none" stroke="#0cd3e9" stroke-width="2"/><line x1="26.703" y2="11.683" transform="translate(26.703 10.848)" fill="none" stroke="#0cd3e9" stroke-width="2"/><line y1="32.545" transform="translate(0 10.848)" fill="none" stroke="#0cd3e9" stroke-width="2"/><line x1="26.703" y1="11.683" transform="translate(0 10.848)" fill="none" stroke="#0cd3e9" stroke-width="2"/><line y1="10.848" x2="26.703" transform="translate(0)" fill="none" stroke="#0cd3e9" stroke-width="2"/><line x1="26.703" y1="10.848" transform="translate(26.703)" fill="none" stroke="#0cd3e9" stroke-width="2"/><line y2="33.379" transform="translate(26.703 22.531)" fill="none" stroke="#0cd3e9" stroke-width="2"/></g></g></svg>