<svg xmlns="http://www.w3.org/2000/svg" xmlns:xlink="http://www.w3.org/1999/xlink" width="89.089" height="106.285" viewBox="0 0 89.089 106.285"><defs><linearGradient id="a" x1="0.5" x2="0.5" y2="1" gradientUnits="objectBoundingBox"><stop offset="0" stop-color="#1c21b5"/><stop offset="1" stop-color="#d016d6"/></linearGradient></defs><g transform="translate(-35.4)"><g transform="translate(35.4)"><g transform="translate(0)"><path d="M91.068,300.4H68.723A33.377,33.377,0,0,0,35.4,333.723h89.089A33.587,33.587,0,0,0,91.068,300.4Z" transform="translate(-35.4 -227.438)" fill="url(#a)"/><path d="M150.506,121a7.193,7.193,0,0,1,4.663,1.652h8.064A23.108,23.108,0,1,0,123.4,106.722a23.168,23.168,0,0,0,11.853,20.208A7.569,7.569,0,0,1,142.539,121Z" transform="translate(-102.026 -63.295)" fill="url(#a)"/><path d="M75.68,45.37a10.854,10.854,0,0,0,3.109,6.315,11.723,11.723,0,0,0,4.76,2.817,4.357,4.357,0,0,1-.1-1.069V34.586a4.73,4.73,0,0,1,.1-1.166,10.389,10.389,0,0,0-4.76,2.817l-.389.389v-.777a33.321,33.321,0,0,1,.486-5.441,23.251,23.251,0,0,1,1.457-5.246,23.094,23.094,0,0,1,2.332-4.955,28.273,28.273,0,0,1,3.109-4.469.737.737,0,0,0,.194-.389,2.868,2.868,0,0,0,2.332-.777,30.257,30.257,0,0,1,42.747,0,2.761,2.761,0,0,0,2.332.777c.1.1.1.291.194.389a28.274,28.274,0,0,1,3.109,4.469,38.7,38.7,0,0,1,2.332,4.955,48.042,48.042,0,0,1,1.457,5.343,33.321,33.321,0,0,1,.486,5.441v.777c-.1-.194-.291-.291-.389-.389a11.723,11.723,0,0,0-4.76-2.817,4.729,4.729,0,0,1,.1,1.166v18.75a3.642,3.642,0,0,1-.1,1.069,8.549,8.549,0,0,0,1.457-.486v6.121a9.788,9.788,0,0,1-.194,1.846,2.732,2.732,0,0,1-.486,1.069,2.115,2.115,0,0,1-.777.486,4.922,4.922,0,0,1-1.263.194H116.581a3.228,3.228,0,0,0-2.817-1.652H105.8a3.13,3.13,0,0,0-3.109,3.109,3.215,3.215,0,0,0,3.206,3.109h7.967a3.35,3.35,0,0,0,2.817-1.652h18.75a5.681,5.681,0,0,0,1.846-.389A5.177,5.177,0,0,0,139.218,65a6.413,6.413,0,0,0,1.166-2.137,11.6,11.6,0,0,0,.389-2.817V51.977l.291-.291a10.854,10.854,0,0,0,3.109-6.315c.1-.1.194-.1.194-.194a1.792,1.792,0,0,0,.486-1.166V35.946a40.856,40.856,0,0,0-.486-6.023c-.583-2.04-1.069-3.983-1.749-5.926a28.893,28.893,0,0,0-2.623-5.538,28.623,28.623,0,0,0-3.5-4.955.97.97,0,0,0-.486-.389,2.959,2.959,0,0,0-.777-2.623A35.666,35.666,0,0,0,109.878,0,36.053,36.053,0,0,0,84.424,10.492a2.959,2.959,0,0,0-.777,2.623,1.705,1.705,0,0,0-.486.389,28.623,28.623,0,0,0-3.5,4.955A48.406,48.406,0,0,0,77.04,24a31.314,31.314,0,0,0-1.554,5.926A30.876,30.876,0,0,0,75,35.946V44.01a1.609,1.609,0,0,0,.486,1.166C75.583,45.273,75.68,45.273,75.68,45.37Z" transform="translate(-65.382)" fill="url(#a)"/></g></g></g></svg>