<svg xmlns="http://www.w3.org/2000/svg" xmlns:xlink="http://www.w3.org/1999/xlink" width="295.865" height="248.667" viewBox="0 0 295.865 248.667"><defs><linearGradient id="a" x1="0.5" y1="1" x2="0.5" gradientUnits="objectBoundingBox"><stop offset="0" stop-color="gray" stop-opacity="0.251"/><stop offset="0.54" stop-color="gray" stop-opacity="0.122"/><stop offset="1" stop-color="gray" stop-opacity="0.102"/></linearGradient></defs><g transform="translate(-28.25 -0.008)"><path d="M290.448,131.413a687.3,687.3,0,0,1,31.21-74.833s-79.677,29.586-97.046,22.84c-18-6.991-35.828-14.737-55.145-18.44-12.425-2.382-26.635-2.719-36.644,3.942C123.186,71.344,120.073,82.4,118.4,92.667c-1.26,7.725-2,15.853,1.453,23.085,2.394,5.021,6.648,9.241,9.587,14.067,10.235,16.734,3,37.369-8.088,53.708-5.2,7.667-11.238,14.984-15.25,23.137s-5.871,17.507-2.361,25.831c3.483,8.257,11.78,14.446,20.764,18.8,18.253,8.853,39.754,11.385,60.736,12.819,44.015,3.012,141.07-31.623,141.07-31.623S275.174,174.83,290.448,131.413Z" transform="translate(-23.161 -45.036)" fill="#13a1e1" opacity="0.51"/><path d="M174.231,487.5l-104.67-.511L59.16,462.6l36.776-2.67-6.41-26.746,72.738-9.428L92.612,399.542l6.153-1.462,112,18.272L204.6,458.091l-8.816,22.938Z" transform="translate(-21.458 -276.341)" fill="#6c63ff"/><path d="M187,698.613s6.422-1.028,10.275,3.511c0,0-2.826,2.226-8.9-.856Z" transform="translate(-137.292 -498.179)" fill="#6c63ff"/><path d="M178.811,698.51s-4.1,5.043-2.079,10.657c0,0,3.339-1.336,3.7-8.144Z" transform="translate(-129.775 -498.176)" fill="#6c63ff"/><path d="M172.76,667.7s2.569-4.712,12.844,1.884c0,0-1.37,3.168-5.908,2.911S173.959,670.181,172.76,667.7Z" transform="translate(-127.406 -475.654)" fill="#6c63ff"/><path d="M157.317,670.279s-5.33-.612-5.847,11.59c0,0,3.379.7,5.78-3.159S158.666,672.685,157.317,670.279Z" transform="translate(-112.627 -478.575)" fill="#6c63ff"/><path d="M572.807,670.36s-6.932,8.462-1.428,21.253l-55.35,24.006-5.312,1.113-2.446-10.7,1.636-13.507v-7.382Z" transform="translate(-360.316 -478.635)" fill="#d5d6db"/><path d="M59.16,577.356l76.61-13.966,101.511,16.171-63.05,22.7Z" transform="translate(-21.458 -391.098)" fill="#6c63ff"/><path d="M59.16,577.356l76.61-13.966,101.511,16.171-63.05,22.7Z" transform="translate(-21.458 -391.098)" fill="#6c63ff"/><path d="M141.193,652.47s-7.165,13.575,1.092,26.113L255.891,703.2s-7.052-10.813.364-25.822Z" transform="translate(-103.491 -466.215)" fill="#6c63ff"/><path d="M141.193,652.47s-7.165,13.575,1.092,26.113L255.891,703.2s-7.052-10.813.364-25.822Z" transform="translate(-103.491 -466.215)" opacity="0.1"/><path d="M154.679,667.86s-4.095,9.932,0,16.36" transform="translate(-113.591 -476.899)" opacity="0.1"/><path d="M264.916,756.924l63.424-27.064s3.547.765,1.254,3.364-63.454,26.3-63.454,26.3L151.31,732.306Z" transform="translate(-112.516 -519.939)" fill="#6c63ff"/><path d="M264.916,756.924l63.424-27.064s3.547.765,1.254,3.364-63.454,26.3-63.454,26.3L151.31,732.306Z" transform="translate(-112.516 -519.939)" opacity="0.1"/><path d="M499.639,742.86s-6.116,7.339,0,18.348" transform="translate(-352.438 -528.964)" opacity="0.1"/><rect width="28.92" height="0.306" transform="translate(149.379 222.924) rotate(-18.45)" opacity="0.1"/><rect width="35.238" height="0.306" transform="translate(149.368 225.386) rotate(-20.82)" opacity="0.1"/><rect width="40.843" height="0.306" transform="translate(149.552 228.288) rotate(-22.26)" opacity="0.1"/><rect width="47.014" height="0.306" transform="translate(149.993 230.847) rotate(-24.31)" opacity="0.1"/><rect width="51.421" height="0.306" transform="matrix(0.916, -0.401, 0.401, 0.916, 150.333, 232.092)" opacity="0.1"/><rect width="61.534" height="0.306" transform="translate(151.044 234.184) rotate(-23.36)" opacity="0.1"/><path d="M152.23,588.255l53.821-11.315,32.788,6.269-44.1,14.22Z" transform="translate(-86.067 -400.505)" fill="#fff" opacity="0.3"/><path d="M587.06,659.69s2.783,1.122,1.15,2.856S524,682.39,524,682.39Z" transform="translate(-371.236 -471.228)" fill="#6c63ff"/><path d="M672.1,574.18s-6.93,8.458-1.425,21.253l-55.35,24.006-5.312,1.119-2.446-10.7,1.66-13.5v-7.391Z" transform="translate(-429.25 -411.867)" fill="#d5d6db"/><path d="M158.46,481.173l76.607-13.963,101.514,16.171-63.05,22.7Z" transform="translate(-90.391 -324.331)" fill="#3a3768"/><path d="M240.448,556.29s-7.168,13.575,1.089,26.113L355.143,607.02s-7.049-10.822.376-25.825Z" transform="translate(-172.392 -399.448)" fill="#3a3768"/><path d="M240.448,556.29s-7.168,13.575,1.089,26.113L355.143,607.02s-7.049-10.822.376-25.825l-35.926-7.776Z" transform="translate(-172.392 -399.448)" opacity="0.1"/><path d="M253.972,571.68s-4.092,9.929,0,16.36" transform="translate(-182.521 -410.131)" opacity="0.1"/><path d="M364.206,660.744l63.427-27.064s3.544.764,1.251,3.364-63.454,26.3-63.454,26.3L250.6,636.126Z" transform="translate(-181.443 -453.172)" fill="#3a3768"/><path d="M364.206,660.744l63.427-27.064s3.544.764,1.251,3.364-63.454,26.3-63.454,26.3L250.6,636.126Z" transform="translate(-181.443 -453.172)" opacity="0.1"/><path d="M598.929,646.68s-6.116,7.339,0,18.348" transform="translate(-421.365 -462.196)" opacity="0.1"/><rect width="28.92" height="0.306" transform="translate(179.744 193.515) rotate(-18.45)" opacity="0.1"/><rect width="35.238" height="0.306" transform="translate(179.738 195.976) rotate(-20.82)" opacity="0.1"/><rect width="40.843" height="0.306" transform="translate(179.917 198.874) rotate(-22.26)" opacity="0.1"/><rect width="47.014" height="0.306" transform="translate(180.362 201.433) rotate(-24.31)" opacity="0.1"/><rect width="51.421" height="0.306" transform="matrix(0.916, -0.401, 0.401, 0.916, 180.697, 202.675)" opacity="0.1"/><rect width="61.534" height="0.306" transform="translate(181.411 204.766) rotate(-23.36)" opacity="0.1"/><path d="M251.53,492.075l53.821-11.315,32.788,6.269-44.1,14.22Z" transform="translate(-155 -333.737)" fill="#fff" opacity="0.45"/><path d="M686.38,563.51s2.78,1.122,1.15,2.853-64.2,19.844-64.2,19.844Z" transform="translate(-440.191 -404.46)" fill="#3a3768"/><path d="M681.524,464.15s-6.933,15.189-1.428,27.981l-55.35,17.278-5.3,1.122L617,499.828l1.636-13.507V478.93Z" transform="translate(-435.796 -335.484)" fill="#d5d6db"/><path d="M167.89,371.146,244.5,357.18l101.514,16.171-63.054,22.7Z" transform="translate(-96.938 -247.948)" fill="#1c21b5"/><path d="M249.9,446.26s-7.177,13.575,1.079,26.113L364.589,496.99s-7.052-10.822.373-25.822Z" transform="translate(-178.951 -323.065)" fill="#6c63ff"/><path d="M249.9,446.26s-7.177,13.575,1.079,26.113L364.589,496.99s-7.052-10.822.373-25.822Z" transform="translate(-178.951 -323.065)" fill="#051565" opacity="0.75"/><path d="M263.409,461.65s-4.095,9.932,0,16.36" transform="translate(-189.071 -333.749)" opacity="0.1"/><path d="M373.646,556.267l63.424-20.336s3.547.765,1.254,3.364-63.454,19.571-63.454,19.571L260.04,531.65Z" transform="translate(-187.996 -382.343)" fill="#6c63ff"/><path d="M373.646,556.267l63.424-20.336s3.547.765,1.254,3.364-63.454,19.571-63.454,19.571L260.04,531.65Z" transform="translate(-187.996 -382.343)" opacity="0.1"/><path d="M608.369,536.65s-6.116,7.339,0,18.348" transform="translate(-427.918 -385.814)" opacity="0.1"/><rect width="28.92" height="0.306" transform="translate(182.632 159.867) rotate(-18.45)" opacity="0.1"/><rect width="35.238" height="0.306" transform="translate(182.623 162.329) rotate(-20.82)" opacity="0.1"/><rect width="40.843" height="0.306" transform="translate(182.8 165.229) rotate(-22.26)" opacity="0.1"/><rect width="47.014" height="0.306" transform="translate(183.249 167.786) rotate(-24.31)" opacity="0.1"/><rect width="51.421" height="0.306" transform="matrix(0.916, -0.401, 0.401, 0.916, 183.586, 169.03)" opacity="0.1"/><rect width="61.534" height="0.306" transform="translate(184.298 171.123) rotate(-23.36)" opacity="0.1"/><path d="M260.96,382.045l53.821-11.315L347.57,377l-44.1,14.22Z" transform="translate(-161.547 -257.354)" fill="#fff" opacity="0.3"/><path d="M695.811,453.48s2.783,1.122,1.15,2.856-64.2,19.844-64.2,19.844Z" transform="translate(-446.737 -328.077)" fill="#6c63ff"/><ellipse cx="7.03" cy="0.786" rx="7.03" ry="0.786" transform="translate(74.338 238.232)" fill="#6c63ff" opacity="0.1"/><ellipse cx="7.03" cy="0.786" rx="7.03" ry="0.786" transform="translate(28.25 224.874)" fill="#6c63ff" opacity="0.1"/><ellipse cx="7.03" cy="0.786" rx="7.03" ry="0.786" transform="translate(109.468 247.103)" fill="#6c63ff" opacity="0.1"/><ellipse cx="7.03" cy="0.786" rx="7.03" ry="0.786" transform="translate(289.495 227.78)" fill="#6c63ff" opacity="0.1"/><ellipse cx="7.03" cy="0.786" rx="7.03" ry="0.786" transform="translate(230.991 223.966)" fill="#6c63ff" opacity="0.1"/><ellipse cx="8.315" cy="1.428" rx="8.315" ry="1.428" transform="translate(191.861 241.281)" fill="#6c63ff" opacity="0.1"/><path d="M568.088,158.8c-2-5.434-13.009-5.945-17.786-4.56a142.8,142.8,0,0,1-14.373,2.66l-.248-.235c.5-.147.508-.508.446-1.043a16.313,16.313,0,0,1,.031-2.116,5.21,5.21,0,0,0,4.428-.994h0c2.752-1.223,2.012-6.459,2.538-7.89.394-1.07.82-7.376,1.009-10.52h.04l.021-1.055c.028-.456.04-.722.04-.722s.269-7.688.8-9.244c.489-1.431.887-8.642.948-9.786v-.15l-.04-.667c.028-.486.04-1.027.037-1.6,0-2.615-.272-5.908-.306-6.44v-.278c.021-1.116-.119-6.706-4.874-8.819-1.752-.783-3.859-1.716-5.9-2.624-.526-4.541-1.728-9.058-1.624-13.633,0-.688.061-1.376.128-2.061,0,.2-.021.4-.024.612v1.333c.18-5.722,2.342-11.474,2.141-17.073-.018.547-.058,1.1-.11,1.648a17.776,17.776,0,0,0-.587-5.624,3.328,3.328,0,0,0-.96-1.743,3.954,3.954,0,0,0-1.676-.664,33.7,33.7,0,0,0-4.4-.82,6.794,6.794,0,0,0-.991-1.924c-3.1-4.257-7.694-8.257-13.125-9.174-2.725-.459-5.859-.076-7.712,1.872a5.776,5.776,0,0,0-.544.55c-1,1.19-1.425,2.752-2.446,3.939-.067.08-.144.153-.217.229-2,1.789-5.116,2.162-7.339,3.767a8.812,8.812,0,0,0-1.1.957,18.612,18.612,0,0,0-2.4,2.914,12.09,12.09,0,0,0-2.346,4.55c-.639,3.364,1.651,6.553,2.076,9.939.948,7.575-7.434,14.3-5.847,21.77a9.969,9.969,0,0,0,2.7,4.841c-3.269,2.96-6.052,5.832-6.052,5.832v.171h-.517l.052.612h-.052l.284,3.318-.284,4.832v.456h.018c.095,1.771.471,8.137.917,9.48.526,1.557.792,9.244.792,9.244s.581,10.865,1.113,12.3-.223,6.657,2.538,7.89h0a5.811,5.811,0,0,0,2.774,1.15c-.141,1.144-.052,1.972.4,2.232a1.333,1.333,0,0,0,.642.183,6.817,6.817,0,0,0-.5.872,12.956,12.956,0,0,1-3.2-.755c-2.966-1.223-12.81-3.975-15.669-2.04s-9.74,3.691-6.563,11.483,4.657,7.988,4.657,7.988a11.315,11.315,0,0,1,2.541,2.553c.954,1.434,9.844,4.715,12.067,4.715a21.766,21.766,0,0,1,2.829.141s-2.413,2.116-2.092,3.345-.734,11.07-.734,11.07,2.446,2.465,3.492-.768l.037.049c.2.266,1.254,1.468,3.245-.049a18.19,18.19,0,0,1,2.587-1.639l9.639-1.364a27.283,27.283,0,0,1,3.018-.021,6.307,6.307,0,0,0,3.975-1.48c2,.758,4.241,1.587,5.309,1.89,2.165.612,12.116,3.281,14.443,2.446a3.232,3.232,0,0,0,1.254-.893l2.22.07-1.04.208s2.024.034,4.777.07l-.116.067,3.453-.031c5.052.046,10.728.061,11.474-.107a80.61,80.61,0,0,1,9.027,0h.5s6.67-1.33,3.917-8.1c-2.116-5.2-8.621-6.709-11.507-7.125.813-.162,1.514-.287,1.979-.361,2.015-.306,5.93-2.141,6.247-2.768s3.6-2.446,4.446-3.483S570.1,164.236,568.088,158.8Zm-55.243,15.208-.327.107-.22.073-.422.416c-.336-.226-.7-.465-1.073-.709C511.465,173.936,512.147,173.976,512.844,174.009Zm29.146,8.618Z" transform="translate(-329.84 -43.42)" fill="url(#a)"/><path d="M686.65,279.385s4.679,12.232,7.339,11.009,1.939-6.422,2.446-7.847,1.07-12.232,1.07-12.232.257-7.645.765-9.192c.471-1.422.853-8.593.917-9.722v-.15l-.5-8.868-2.856-.713-6.624,2.446-.917,5.238-.358,2.046-.153.872Z" transform="translate(-484.147 -181.039)" fill="#be6f72"/><path d="M691.69,358.3s4.465,3.654,5.81,3.975,2.171,3.171,2.171,3.171" transform="translate(-487.646 -262.003)" opacity="0.1"/><path d="M538.538,281.135s-4.679,12.232-7.339,11.009-1.939-6.422-2.446-7.847-1.07-12.232-1.07-12.232-.257-7.645-.765-9.192c-.471-1.422-.853-8.593-.917-9.721V253l.508-8.868,2.856-.712,6.624,2.446.917,5.238.358,2.046.153.872Z" transform="translate(-372.625 -182.254)" fill="#be6f72"/><rect width="10.443" height="16.278" transform="translate(185.937 33.42)" fill="#3e373a"/><rect width="10.443" height="16.278" transform="translate(185.937 33.42)" opacity="0.1"/><path d="M555.236,404.381s-3.569,3.923-2.245,4.636,9.89,14.067,9.89,14.067,28.134,3.465,33.44-1.734,5.2-14.486,5.2-14.486-4.263.917-4.728.419-3.018-2.9-3.018-2.9S557.682,402.191,555.236,404.381Z" transform="translate(-391.157 -293.317)" fill="#4b4b5b"/><path d="M555.236,404.381s-3.569,3.923-2.245,4.636,9.89,14.067,9.89,14.067,28.134,3.465,33.44-1.734,5.2-14.486,5.2-14.486-4.263.917-4.728.419-3.018-2.9-3.018-2.9S557.682,402.191,555.236,404.381Z" transform="translate(-391.157 -293.317)" opacity="0.02"/><path d="M588.5,180.527l-9.174,7.339-2.774.2-1.018.073-17.1,1.254L540.7,188.1l-2.639-.193-3.364-.245-7.034-6.728A120.447,120.447,0,0,1,537,172a19.16,19.16,0,0,1,4.526-3.024l.2-.07a5.034,5.034,0,0,0,1.939-1.352c3.443-3.55,6.627-12.312,6.627-12.312s15.189-7.847,13.354,2.446,6.829,7.749,6.829,7.749l2.856,1.3,1.128.517,2.878,1.318,6.492,2.979C588.925,173.9,588.5,180.527,588.5,180.527Z" transform="translate(-373.777 -119.056)" fill="#be6f72"/><circle cx="13.66" cy="13.66" r="13.66" transform="translate(170.283 17.249)" opacity="0.1"/><path d="M587.372,227.73H526v-.15l.508-8.868a120.445,120.445,0,0,1,9.339-8.933l38.531-1.529,1.792-1.89,6.492,2.979c5.1,2.342,4.688,8.969,4.688,8.969S588.047,225.986,587.372,227.73Z" transform="translate(-372.625 -156.527)" opacity="0.1"/><path d="M587.372,226.73H526v-.15l.508-8.868a120.445,120.445,0,0,1,9.339-8.933l38.531-1.529,1.792-1.89,6.492,2.979c5.1,2.342,4.688,8.969,4.688,8.969S588.047,224.986,587.372,226.73Z" transform="translate(-372.625 -155.833)" fill="#e7c7ca"/><path d="M585.113,187.855s9.682,12.336,22.577-.254,1.428,28.082,1.428,28.082l-27.828,3.3Z" transform="translate(-411.007 -141.826)" opacity="0.1"/><path d="M585.113,189.855s9.682,12.336,22.577-.254,1.428,28.082,1.428,28.082l-27.828,3.3Z" transform="translate(-411.007 -143.214)" fill="#e7c7ca"/><path d="M591.021,201.855l1.024,15.623,1.1,5.2.838,3.975s2.141,30.58,1.529,32.109.306,2.752.434,3.566-.128,2.856-.027,3.774,0,1.324-2.343,1-5.608-.9-5.608-.9-8.257.612-11.11-.407-8.257-1.021-8.257-1.021-8.156.2-10.8-.1-4.079,3.263-5.81,2.242,2.037-10.9,3.26-13.761-1.63-10.092-1.63-10.092l3.67-20.357.817-4.615V203.582l.2-.07a5.033,5.033,0,0,0,1.939-1.352l.917,14.6,28.746,1.021V201.35" transform="translate(-390.353 -153.049)" opacity="0.1"/><path d="M591.021,199.855l1.024,15.623,1.1,5.2.838,3.975s2.141,30.58,1.529,32.109.306,2.752.434,3.566-.128,2.856-.027,3.774,0,1.324-2.343,1-5.608-.9-5.608-.9-8.257.612-11.11-.407-8.257-1.021-8.257-1.021-8.156.2-10.8-.1-4.079,3.263-5.81,2.242,2.037-10.9,3.26-13.761-1.63-10.092-1.63-10.092l3.67-20.357.817-4.615V201.582l.2-.07a5.033,5.033,0,0,0,1.939-1.352l.917,14.6,28.746,1.021V199.35" transform="translate(-390.353 -151.661)" fill="#e7c7ca"/><path d="M584.616,61.669a3.371,3.371,0,0,0-.917-1.731,3.755,3.755,0,0,0-1.615-.661,31.9,31.9,0,0,0-4.245-.813,6.8,6.8,0,0,0-.917-1.905c-3-4.232-7.431-8.223-12.648-9.125-2.731-.474-5.9-.049-7.645,2.1-.96,1.183-1.373,2.752-2.342,3.914-1.868,2.257-5.242,2.535-7.6,4.281a14.075,14.075,0,0,0-3.058,3.538,12.137,12.137,0,0,0-2.26,4.523c-.612,3.336,1.593,6.517,2,9.884.917,7.532-7.156,14.214-5.63,21.645.89,4.333,4.893,7.385,9.033,8.933,1.459.547,3.125,1.092,3.807,2.492.306.612.358,1.318.645,1.936.966,2.061,4.144,2.141,5.85.639s2.245-3.93,2.446-6.2c.82-9.9-3.144-19.672-2.682-29.593.138-3,.982-6.4,3.67-7.761,3.618-1.835,7.969,1.223,11.951.639a23.71,23.71,0,0,1,1.144,14.468c-.633,2.639-1.728,5.2-1.807,7.92-.119,4.144,2.116,7.929,4.049,11.593a6.169,6.169,0,0,1,.817,2.235,5.389,5.389,0,0,1-.437,2.339c-1.092,2.939-2.976,5.667-3.19,8.795a1.421,1.421,0,0,0,.229,1.046,1.315,1.315,0,0,0,.789.355c3.3.566,6.159-2.361,7.77-5.3a24.844,24.844,0,0,0,3.064-10.556c.333-6.226-1.9-12.351-1.761-18.584C583.289,75.638,586.491,68.5,584.616,61.669Z" transform="translate(-380.643 -46.08)" opacity="0.1"/><path d="M585.616,60.669a3.369,3.369,0,0,0-.917-1.731,3.755,3.755,0,0,0-1.615-.661,31.9,31.9,0,0,0-4.245-.813,6.794,6.794,0,0,0-.917-1.905c-3-4.232-7.431-8.223-12.648-9.125-2.731-.474-5.9-.049-7.645,2.1-.96,1.183-1.373,2.752-2.342,3.914-1.868,2.257-5.242,2.535-7.6,4.281a14.073,14.073,0,0,0-3.058,3.538,12.136,12.136,0,0,0-2.26,4.523c-.612,3.336,1.593,6.517,2,9.884.917,7.532-7.156,14.214-5.63,21.645.89,4.333,4.893,7.385,9.033,8.933,1.459.547,3.125,1.092,3.807,2.492.306.612.358,1.318.645,1.936.966,2.061,4.144,2.141,5.85.639s2.245-3.93,2.446-6.2c.82-9.9-3.144-19.672-2.682-29.593.138-3,.982-6.4,3.67-7.761,3.618-1.835,7.969,1.223,11.951.639a23.709,23.709,0,0,1,1.144,14.468c-.633,2.639-1.728,5.2-1.807,7.92-.119,4.144,2.116,7.929,4.049,11.593a6.169,6.169,0,0,1,.817,2.235,5.388,5.388,0,0,1-.437,2.339c-1.092,2.939-2.976,5.667-3.19,8.795a1.422,1.422,0,0,0,.229,1.046,1.315,1.315,0,0,0,.789.355c3.3.566,6.159-2.361,7.771-5.3a24.845,24.845,0,0,0,3.064-10.556c.333-6.226-1.9-12.351-1.761-18.584C584.289,74.638,587.491,67.5,585.616,60.669Z" transform="translate(-381.337 -45.386)" fill="#3e373a"/><path d="M581.79,473.188l12.131.388-1.74-9-9.293.884Z" transform="translate(-384.266 -322.505)" fill="#c3c7d9"/><path d="M665.329,423.39c-.817,1.018-3.975,2.853-4.281,3.465s-4.076,2.446-6.015,2.752-8.052,1.633-9.174,2.345c-.8.514-7.26,2.141-11.5,3.043a32.642,32.642,0,0,1-3.483.627c-1.835.1-21.914-6.728-21.914-6.728l3.871-3.975.214-.073c1.095-.37,6.153-2.079,8.96-2.893,3.162-.917,6.832-4.688,6.832-4.688s5.4-1.835,6.116-2.04-1.835-7.134-1.835-7.134,11.721-1.627,16.309-3.006,15.189-.868,17.125,4.535S666.157,422.371,665.329,423.39Z" transform="translate(-430.215 -294.03)" fill="#4b4b5b"/><path d="M559.849,498.224s-2.342,2.446-4.688,2.245-10.547.612-10.547.612a16.442,16.442,0,0,0-4.131,2.395c-1.917,1.511-2.936.306-3.125.049l-.034-.049c-1.021,3.214-3.364.764-3.364.764s1.018-9.786.706-11.009,2.015-3.324,2.015-3.324l2.752-.7,6.972-1.786,9.991,3.465Z" transform="translate(-378.15 -351.638)" fill="#e7c7ca"/><path d="M539.422,493.26l-2.064,14.318-.034-.049c-1.021,3.214-3.364.765-3.364.765s1.018-9.786.706-11.009,2.015-3.324,2.015-3.324Z" transform="translate(-378.15 -355.692)" opacity="0.1"/><path d="M599,360.08s5.4,1.835,10.092,0" transform="translate(-423.301 -263.239)" opacity="0.1"/><path d="M659.29,371.42s2.242,1.119,3.976,0" transform="translate(-465.154 -271.111)" opacity="0.1"/><path d="M659.29,378.934s3.771.5,4.486-.514" transform="translate(-465.154 -275.971)" opacity="0.1"/><path d="M655.29,393.891s7.082-.917,8.841-2.141" transform="translate(-462.377 -285.224)" opacity="0.1"/><path d="M584.62,391.75s3.975,2.242,6.932,2.141" transform="translate(-413.318 -285.224)" opacity="0.1"/><path d="M634.347,481.33a32.651,32.651,0,0,1-3.483.627c-1.835.1-21.914-6.728-21.914-6.728l3.871-3.975.214-.073c.612.431,1.113.8,1.471,1.083,1.685,1.327,3.312-.407,3.923-.407s5.911,4.382,5.911,4.382,4.893,1.122,5.709,2.141,3.67.816,4.177,1.529A2.728,2.728,0,0,1,634.347,481.33Z" transform="translate(-430.208 -340.364)" opacity="0.1"/><path d="M500.706,409.535s-4.948.284-7.8-.917-12.333-3.975-15.085-2.027-9.379,3.67-6.321,11.419,4.486,7.951,4.486,7.951a11.04,11.04,0,0,1,2.446,2.538c.917,1.428,9.48,4.688,11.621,4.688s5.911,0,11.211,3.67a23.041,23.041,0,0,0,10.092,4.079s6.728,2.752,8.822,3.364,11.666,3.26,13.911,2.446,3.67-5.914,3.67-5.914,1.018-4.587.508-5.3-3.364-.511-4.177-1.529-5.709-2.141-5.709-2.141-5.287-4.385-5.9-4.385-2.238,1.731-3.923.407A89.509,89.509,0,0,0,508,421.155C504.131,419.115,500.706,409.535,500.706,409.535Z" transform="translate(-334.242 -295.058)" fill="#4b4b5b"/><path d="M536.27,427.152a5.841,5.841,0,0,1,5.012,1.324c2.446,2.04,10.679,6.134,10.679,6.134" transform="translate(-379.754 -309.718)" opacity="0.1"/><path d="M706.9,427S696,428.651,693.96,430.893" transform="translate(-489.222 -309.695)" opacity="0.1"/><path d="M713.653,502.71h-.48a82.24,82.24,0,0,0-8.694,0c-1.324.306-18.859,0-18.859,0l3.428-.712s-1.272-4.459-.465-4.829c0,0-4.587-3.021-1.128-5.061a10.73,10.73,0,0,1,7.186-1.18l8.682-2.942,1.667-.566s9.786.511,12.434,7.238S713.653,502.71,713.653,502.71Z" transform="translate(-483.432 -351.638)" fill="#e7c7ca"/><path d="M753.84,502.745h-.48c2.847-2.349,9.287-9.5-9.85-14.709l1.667-.566s9.786.511,12.434,7.238S753.84,502.745,753.84,502.745Z" transform="translate(-523.619 -351.673)" opacity="0.1"/><circle cx="0.535" cy="0.535" r="0.535" transform="translate(211.695 142.075)" fill="#4b4b5b"/><circle cx="0.535" cy="0.535" r="0.535" transform="translate(208.585 142.959)" fill="#4b4b5b"/><g transform="translate(157.297 19.237)" opacity="0.1"><path d="M619.216,117.723a23.728,23.728,0,0,0-1.755-9.829c-3.975.593-8.33-2.474-11.951-.639-2.679,1.358-3.52,4.761-3.67,7.761-.037.792-.043,1.584-.028,2.376,0-.281,0-.566.028-.847.141-3,.982-6.4,3.67-7.761,3.621-1.835,7.969,1.223,11.951.639A23.666,23.666,0,0,1,619.216,117.723Z" transform="translate(-582.545 -106.555)"/><path d="M553.142,118.557a10.191,10.191,0,0,0-.04-2c-.324-2.691-1.8-5.263-2.061-7.887-.342,3.165,1.673,6.2,2.061,9.416A1.909,1.909,0,0,1,553.142,118.557Z" transform="translate(-547.278 -107.948)"/><path d="M560.8,210.324c-.19,2.269-.725,4.694-2.446,6.2s-4.893,1.422-5.85-.639c-.306-.612-.352-1.324-.648-1.936-.679-1.4-2.349-1.945-3.807-2.492-4.144-1.55-8.141-4.587-9.03-8.933a9.386,9.386,0,0,1-.162-1.193,9.636,9.636,0,0,0,.162,2.722c.89,4.333,4.893,7.382,9.03,8.933,1.459.547,3.128,1.092,3.807,2.492.306.612.358,1.318.648,1.936.963,2.061,4.141,2.141,5.85.639s2.242-3.93,2.446-6.2a34.952,34.952,0,0,0,.095-3.59C560.895,208.957,560.855,209.642,560.8,210.324Z" transform="translate(-538.823 -172.273)"/><path d="M687.93,121.961v1.324c.171-5.688,2.257-11.406,2.052-16.975C689.823,111.46,688.046,116.726,687.93,121.961Z" transform="translate(-642.333 -106.31)"/><path d="M655.581,201.22a3.943,3.943,0,0,0,.07-1.1,6.117,6.117,0,0,0-.817-2.235c-1.768-3.364-3.783-6.807-4.021-10.541,0,.159-.021.306-.024.477-.122,4.141,2.113,7.929,4.046,11.593A7.34,7.34,0,0,1,655.581,201.22Z" transform="translate(-616.546 -162.561)"/><path d="M666.67,216.872a24.884,24.884,0,0,1-3.086,10.556c-1.615,2.939-4.468,5.865-7.773,5.3a1.3,1.3,0,0,1-.789-.358.763.763,0,0,1-.144-.239c-.037.239-.067.48-.086.725a1.41,1.41,0,0,0,.229,1.043,1.3,1.3,0,0,0,.789.358c3.306.566,6.159-2.361,7.773-5.3A24.884,24.884,0,0,0,666.67,218.4c.037-.716.04-1.428.018-2.141C666.682,216.465,666.682,216.667,666.67,216.872Z" transform="translate(-619.314 -182.637)"/></g><path d="M695.31,510.359s7.74,3.248,12.844-3.939" transform="translate(-490.159 -364.828)" fill="none" stroke="#000" stroke-miterlimit="10" stroke-width="1" opacity="0.1"/><path d="M700.29,533.621a15.09,15.09,0,0,1,14.373-.135" transform="translate(-493.616 -382.415)" fill="none" stroke="#000" stroke-miterlimit="10" stroke-width="1" opacity="0.1"/><path d="M561.93,527.686s2.654-5.988,9.743-1.422" transform="translate(-397.567 -377.412)" fill="none" stroke="#000" stroke-miterlimit="10" stroke-width="1" opacity="0.1"/><path d="M533.79,231.668l5.413-4.893s20.987-1.376,21.856,5.758c0,0,7.44-8.459,23.088-6.575l6.621,5.272-18.3,8.03-17.783,6.168-13.1-5.862Z" transform="translate(-378.032 -169.943)" opacity="0.1"/><path d="M533.79,232.668l5.413-4.893s20.987-1.376,21.856,5.758c0,0,7.44-8.459,23.088-6.575l6.621,5.272-18.3,8.03-17.783,6.168-13.1-5.862Z" transform="translate(-378.032 -170.637)" fill="#d5d6db"/><path d="M437.38,204.83l2.394,28.645,25.382,1.275-1.1-28.522-.021-.48Z" transform="translate(-284.017 -142.187)" opacity="0.1"/><path d="M437.38,202.83l2.394,28.645,25.382,1.275-1.1-28.522-.021-.48Z" transform="translate(-284.017 -140.799)" fill="#6c63ff"/><path d="M575.893,202.83l-26.183,3.927V235.53l25.586-3.7Z" transform="translate(-361.996 -140.799)" opacity="0.1"/><path d="M575.893,200.83l-26.183,3.927V233.53l25.586-3.7Z" transform="translate(-361.996 -139.41)" fill="#6c63ff"/><path d="M583.033,223.79l-14.143,1.572.309,4.819,13.825-1.511Z" transform="translate(-375.311 -155.349)" fill="#fff" opacity="0.3"/><path d="M536.895,332.17l1.44,3.875s2.141,1.835,4.483.917,4.385-1.373,5.4-2.266,2.447-5.379,2.447-5.379,1.428-4.893,2.853-6.116,5.2-18.076,0-16.428-9.174,16.938-9.174,16.938a3.626,3.626,0,0,1-2.242,1.223c-1.324.1-3.975-.2-4.486.917S535.366,329.928,536.895,332.17Z" transform="translate(-379.761 -226.155)" fill="#be6f72"/><path d="M620.859,254.734a8.807,8.807,0,0,1-7.679-1.914l1.1,28.519a7.783,7.783,0,0,0,6.575,2.171Z" transform="translate(-433.145 -188.78)" opacity="0.1"/><path d="M620.859,252.734a8.807,8.807,0,0,1-7.679-1.914l1.1,28.519a7.783,7.783,0,0,0,6.575,2.171Z" transform="translate(-433.145 -187.391)" fill="#6c63ff"/><path d="M620.859,252.734a8.807,8.807,0,0,1-7.679-1.914l1.1,28.519a7.783,7.783,0,0,0,6.575,2.171Z" transform="translate(-433.145 -187.391)" opacity="0.1"/><path d="M640.29,240.118s10.651-3.257,13.428-2.8" transform="translate(-451.964 -177.988)" opacity="0.1"/><path d="M573.979,237.661s-10.324-2.446-12.049-1.752" transform="translate(-397.567 -176.954)" opacity="0.1"/><path d="M662.25,244.03s7.122-2.612,9.7-1.37" transform="translate(-467.209 -181.494)" opacity="0.1"/><path d="M650.52,449.968a23.412,23.412,0,0,1,3.511-2.18,57.27,57.27,0,0,0,5.2-3.177" transform="translate(-459.066 -321.92)" opacity="0.1"/><path d="M543.811,360.08s-4.468,3.654-5.81,3.975-2.171,3.171-2.171,3.171" transform="translate(-379.449 -263.239)" opacity="0.1"/><path d="M671.562,330.41l-1.425,3.884s-2.141,1.835-4.486.917-4.382-1.373-5.4-2.266-2.446-5.379-2.446-5.379-1.425-4.893-2.853-6.116-5.2-18.076,0-16.428,9.174,16.938,9.174,16.938a3.626,3.626,0,0,0,2.242,1.223c1.324.1,3.975-.2,4.486.917S673.091,328.178,671.562,330.41Z" transform="translate(-460.292 -224.94)" fill="#be6f72"/><path d="M707.15,364.94s2.92,1.878,2.908,4.122" transform="translate(-498.378 -266.613)" opacity="0.1"/><circle cx="13.66" cy="13.66" r="13.66" transform="translate(170.332 16.58)" fill="#be6f72"/><path d="M582.715,97.607c1.657-.26,3.11-1.223,4.694-1.777,3.544-1.245,7.465-.391,11.052.731a14.332,14.332,0,0,0,4.217.917,4.268,4.268,0,0,0,3.712-1.835,4.148,4.148,0,0,0-.024-3.832,10.791,10.791,0,0,0-2.5-3.079c-3.18-3-7.125-5.81-11.489-5.5a15.812,15.812,0,0,0-5.049,1.446,55.659,55.659,0,0,0-5.926,2.985c-1.471.853-4.2,1.994-5.043,3.553C574.437,94.726,579.718,98.078,582.715,97.607Z" transform="translate(-407.3 -71.034)" fill="#3e373a"/><path d="M606.388,114.182a4.268,4.268,0,0,1-3.712,1.835,14.345,14.345,0,0,1-4.22-.9c-3.587-1.122-7.5-1.979-11.052-.731-1.581.553-3.037,1.529-4.694,1.774-2.416.379-6.306-1.725-6.728-4.4-.474,3.092,4.037,5.74,6.728,5.318,1.657-.26,3.113-1.223,4.694-1.774,3.547-1.248,7.465-.391,11.052.731a13.764,13.764,0,0,0,4.22.9,4.3,4.3,0,0,0,3.712-1.835,3.581,3.581,0,0,0,.428-2.235A3.3,3.3,0,0,1,606.388,114.182Z" transform="translate(-407.298 -90.856)" opacity="0.1"/><ellipse cx="18.96" cy="2.908" rx="18.96" ry="2.908" transform="translate(286.195 216.165)" fill="#6c63ff" opacity="0.1"/></g></svg>