<svg xmlns="http://www.w3.org/2000/svg" width="250.137" height="252.877" viewBox="0 0 250.137 252.877"><g transform="translate(-1192.785 -1939.123)"><ellipse cx="125.068" cy="126.378" rx="125.068" ry="126.378" transform="translate(1192.785 1939.244)" fill="#500b8b" opacity="0.82"/><ellipse cx="22.417" cy="22.508" rx="22.417" ry="22.508" transform="translate(1256.455 1939.123)" fill="#3c354c"/><ellipse cx="22.417" cy="22.508" rx="22.417" ry="22.508" transform="translate(1255.113 1960.131)" fill="#3c354c"/><path d="M328.195,392.794s-1,14-5.48,16.006,13.948,32.511,13.948,32.511l7.472-9.5L338.158,414.8s4.483-14,6.476-15.005S328.195,392.794,328.195,392.794Z" transform="translate(939.858 1574.089)" fill="#ffc1c7"/><path d="M328.195,392.794s-1,14-5.48,16.006,13.948,32.511,13.948,32.511l7.472-9.5L338.158,414.8s4.483-14,6.476-15.005S328.195,392.794,328.195,392.794Z" transform="translate(939.858 1574.089)" opacity="0.1"/><path d="M445.09,526.457s21.918,11.5,17.435,24.508-13.948-14.505-13.948-14.505l-7.472-5.5Z" transform="translate(878.355 1511.951)" fill="#ffc1c7"/><path d="M443.343,590.017s8.468,18.506,1.494,19.507-7.472-16.506-7.472-16.506Z" transform="translate(880.962 1482.402)" fill="#ffc1c7"/><path d="M369.434,490.938a46.89,46.89,0,0,1,4.483,1.5s14.944,27.51,20.922,33.011,14.446,19.007,12.952,20.007-12.454,8-13.45,6-4.981-9.5-7.472-11-14.944-18.006-18.431-19.507-11.457-25.509-11.457-25.509Z" transform="translate(920.376 1528.463)" fill="#6c63ff"/><path d="M369.434,490.938a46.89,46.89,0,0,1,4.483,1.5s14.944,27.51,20.922,33.011,14.446,19.007,12.952,20.007-12.454,8-13.45,6-4.981-9.5-7.472-11-14.944-18.006-18.431-19.507-11.457-25.509-11.457-25.509Z" transform="translate(920.376 1528.463)" opacity="0.1"/><ellipse cx="14.695" cy="14.755" rx="14.695" ry="14.755" transform="translate(1262.477 1951.127)" fill="#ffc1c7"/><path d="M329.355,456.807s-7.97,9.5-8.967,10c-.374.19-2.864,1.3-5.823,2.606-4.907,2.171-11.114,4.9-11.114,4.9s-3.985,2.5-5.978,2.5-12.952,5.5-12.952,5.5-7.97,6-12.952,6-.5,3-6.974,2.5-1-19.007,1.993-21.507,3.487-12.5,2.989-15.505,2.491-14,6.476-28.01,12.454-8.5,12.454-8.5,4.981-3,5.48-3,5.48,8.5,6.476,13.5c.618,3.1,4.683,9.468,7.681,13.86,1.838,2.7,3.278,4.647,3.278,4.647s0-.935-.025-2.226a44.8,44.8,0,0,0-.473-6.777c-.5-2-1-12.5-1-12.5s0-.5,1.494-.5,13.45,18.506,13.45,18.506l1,10,1.7,1.956Z" transform="translate(969.703 1564.095)" fill="#6c63ff"/><path d="M346.762,470.631s-7.97,9.5-8.967,10c-.374.19-2.864,1.3-5.823,2.606-14.357-3.656-30.79-11.859-30.79-11.859s-4.732-16.756-.747-24.258,15.443,1,15.443,1,4.364,3.386,9.674,7.358c1.056.79,2.147,1.606,3.253,2.421,5.779,4.266,11.841,8.563,14.322,9.728.453.21,1.081.535,1.853.955Z" transform="translate(950.918 1550.27)" opacity="0.1"/><path d="M295.273,468.459s36.863,11.5,46.328,12.5S368,500.97,369.5,500.47s11.956-13,9.465-15.005-32.18-20.007-37.51-22.508S314.2,443.45,314.2,443.45s-11.457-8.5-15.443-1S295.273,468.459,295.273,468.459Z" transform="translate(951.083 1552.443)" fill="#6c63ff"/><path d="M314.626,595.262s-5.978-4.5-9.963-3.5-8.967,4-8.468,10.5a107.5,107.5,0,0,0,1.494,11.5h.5l1.494-9s4.483,2,5.48,5.5,13.45,10.5,16.439,8-2.989-5.5-2.989-5.5Z" transform="translate(953.105 1481.659)" fill="#f2f2f2"/><path d="M314.626,595.262s-5.978-4.5-9.963-3.5-8.967,4-8.468,10.5a107.5,107.5,0,0,0,1.494,11.5h.5l1.494-9s4.483,2,5.48,5.5,13.45,10.5,16.439,8-2.989-5.5-2.989-5.5Z" transform="translate(953.105 1481.659)" opacity="0.1"/><path d="M336.2,579.835s42.841-5,40.848-13-16.937-17.006-16.937-17.006l-24.907,5-16.317,17.731,6.355,3.276Z" transform="translate(939.956 1501.087)" fill="#3c354c"/><path d="M336.2,579.835s42.841-5,40.848-13-16.937-17.006-16.937-17.006l-24.907,5-16.317,17.731,6.355,3.276Z" transform="translate(939.956 1501.087)" opacity="0.1"/><path d="M302.177,618.993S293.709,633.5,291.218,634s-5.48,3.5-1.993,10a35.624,35.624,0,0,1,3.985,12.5h1l-.5-9s6.476,10.5,6.974,14.505,18.93,8,21.918,2.5-3.985-9.5-3.985-9.5-10.461-11.5-8.967-19.506,2.989-10,2.989-10Z" transform="translate(957.206 1468.932)" fill="#f2f2f2"/><path d="M263.021,534.713s-4.483,28.51,11.955,27.51,50.811-21.507,50.811-21.507l10.461-11.5s7.472-10.5-4.981-13.5-32.878,7.5-32.878,7.5l-30.885,13.5Z" transform="translate(968.906 1517.199)" fill="#3c354c"/><path d="M357.882,536.739l1.993,2.5s-30.387,49.517-33.376,50.017-13.45-7-13.45-8.5,3.985-10,4.981-11,10.959-24.008,12.952-25.509S357.882,536.739,357.882,536.739Z" transform="translate(943.543 1507.171)" fill="#3c354c"/><ellipse cx="16.439" cy="11.254" rx="16.439" ry="11.254" transform="translate(1261.437 1943.125)" fill="#3c354c"/><path d="M498.99,478.7l-61.675,64.541-25.922-27.127a8.586,8.586,0,0,0-12.532,0h0a9.58,9.58,0,0,0,0,13.114l33.634,35.2a6.551,6.551,0,0,0,9.559,0l69.461-72.613a9.578,9.578,0,0,0,0-13.114h0A8.584,8.584,0,0,0,498.99,478.7Z" transform="translate(887.095 1590.068)" fill="#57b894"/></g></svg>