<svg xmlns="http://www.w3.org/2000/svg" xmlns:xlink="http://www.w3.org/1999/xlink" width="275.344" height="275.344" viewBox="0 0 275.344 275.344"><defs><style>.a{fill:#0cd3e9;}.b{fill:url(#c);}.c{fill:url(#e);}.d{fill:#13a1e1;font-size:38px;font-family:Harrington;}.e{filter:url(#f);}.f{filter:url(#a);}</style><filter id="a" x="0" y="0" width="275.344" height="275.344" filterUnits="userSpaceOnUse"><feOffset input="SourceAlpha"/><feGaussianBlur stdDeviation="18" result="b"/><feFlood flood-color="#0cd3e9"/><feComposite operator="in" in2="b"/><feComposite in="SourceGraphic"/></filter><linearGradient id="c" x1="0.835" y1="-0.424" x2="0.34" y2="1.181" gradientUnits="objectBoundingBox"><stop offset="0" stop-color="#d016d6"/><stop offset="1" stop-color="#0cd3e9"/></linearGradient><linearGradient id="e" x1="1.065" y1="0.554" x2="-0.113" y2="0.581" gradientUnits="objectBoundingBox"><stop offset="0" stop-color="#d016d6"/><stop offset="0.477" stop-color="#682ebf"/><stop offset="1" stop-color="#0cd3e9"/></linearGradient><filter id="f" x="44.375" y="49.455" width="176.434" height="176.434" filterUnits="userSpaceOnUse"><feOffset input="SourceAlpha"/><feGaussianBlur stdDeviation="18" result="g"/><feFlood flood-color="#0cd3e9"/><feComposite operator="in" in2="g"/><feComposite in="SourceGraphic"/></filter></defs><g transform="translate(160 -311)"><g class="f" transform="matrix(1, 0, 0, 1, -160, 311)"><path class="a" d="M83.672,167.344a84.29,84.29,0,0,1-16.863-1.7,83.213,83.213,0,0,1-29.919-12.59A83.915,83.915,0,0,1,6.575,116.241,83.251,83.251,0,0,1,1.7,100.535a84.488,84.488,0,0,1,0-33.726A83.214,83.214,0,0,1,14.29,36.89,83.916,83.916,0,0,1,51.1,6.575,83.251,83.251,0,0,1,66.809,1.7a84.488,84.488,0,0,1,33.726,0,83.215,83.215,0,0,1,29.919,12.59A83.917,83.917,0,0,1,160.768,51.1a83.251,83.251,0,0,1,4.875,15.706,84.487,84.487,0,0,1,0,33.726,83.213,83.213,0,0,1-12.59,29.919,83.916,83.916,0,0,1-36.813,30.315,83.251,83.251,0,0,1-15.706,4.875A84.289,84.289,0,0,1,83.672,167.344ZM78.058,4.812C36.2,4.812,2.139,40.368,2.139,84.073S36.2,163.334,78.058,163.334s75.919-35.556,75.919-79.261S119.92,4.812,78.058,4.812Z" transform="translate(54 54)"/></g><path class="b" d="M97.573,102.667h0V97.684a58.219,58.219,0,0,0,0-92.7V0a62.464,62.464,0,0,1,22.1,27.089,61.964,61.964,0,0,1,3.629,11.692,62.889,62.889,0,0,1,0,25.106,61.947,61.947,0,0,1-9.372,22.272,62.635,62.635,0,0,1-16.362,16.509Zm-72.444-1.341h0A62.45,62.45,0,0,1,4.895,75.578,61.965,61.965,0,0,1,1.266,63.886a62.89,62.89,0,0,1,0-25.106,61.947,61.947,0,0,1,9.372-22.272A62.626,62.626,0,0,1,25.128,1.341V6.473a58.207,58.207,0,0,0,0,89.722v5.131Z" transform="translate(-89.693 397.338)"/><path class="b" d="M80.089,84.271h0V80.18a47.787,47.787,0,0,0,0-76.09V0A51.271,51.271,0,0,1,98.233,22.235a50.861,50.861,0,0,1,2.979,9.6,51.62,51.62,0,0,1,0,20.607A50.847,50.847,0,0,1,93.519,70.72a51.411,51.411,0,0,1-13.43,13.55Zm-59.463-1.1h0A51.26,51.26,0,0,1,4.018,62.035a50.862,50.862,0,0,1-2.979-9.6,51.621,51.621,0,0,1,0-20.607A50.847,50.847,0,0,1,8.731,13.551,51.4,51.4,0,0,1,20.626,1.1V5.313a47.778,47.778,0,0,0,0,73.645V83.17Z" transform="translate(-21.131 382.834) rotate(56)"/><g class="e" transform="matrix(1, 0, 0, 1, -160, 311)"><circle class="c" cx="34.217" cy="34.217" r="34.217" transform="translate(98.38 103.45)"/></g><circle cx="31.41" cy="31.41" r="31.41" transform="translate(-58.684 417.395)"/><text class="d" transform="translate(-40.774 461.147)"><tspan x="0" y="0">E</tspan></text></g></svg>