<svg xmlns="http://www.w3.org/2000/svg" xmlns:xlink="http://www.w3.org/1999/xlink" width="734" height="734" viewBox="0 0 734 734"><defs><filter id="a" x="0" y="0" width="734" height="734" filterUnits="userSpaceOnUse"><feOffset input="SourceAlpha"/><feGaussianBlur stdDeviation="18" result="b"/><feFlood flood-color="#0cd3e9"/><feComposite operator="in" in2="b"/><feComposite in="SourceGraphic"/></filter><linearGradient id="c" x1="0.835" y1="-0.424" x2="0.34" y2="1.181" gradientUnits="objectBoundingBox"><stop offset="0" stop-color="#d016d6"/><stop offset="1" stop-color="#0cd3e9"/></linearGradient><linearGradient id="e" x1="1.065" y1="0.554" x2="-0.113" y2="0.581" gradientUnits="objectBoundingBox"><stop offset="0" stop-color="#d016d6"/><stop offset="0.477" stop-color="#682ebf"/><stop offset="1" stop-color="#0cd3e9"/></linearGradient><filter id="f" x="166" y="185" width="364" height="364" filterUnits="userSpaceOnUse"><feOffset input="SourceAlpha"/><feGaussianBlur stdDeviation="18" result="g"/><feFlood flood-color="#0cd3e9"/><feComposite operator="in" in2="g"/><feComposite in="SourceGraphic"/></filter></defs><g transform="translate(-1037 -112)"><g transform="matrix(1, 0, 0, 1, 1037, 112)" filter="url(#a)"><path d="M313,626a315.313,315.313,0,0,1-63.081-6.359A311.282,311.282,0,0,1,138,572.545,313.913,313.913,0,0,1,24.6,434.834,311.427,311.427,0,0,1,6.359,376.081a316.055,316.055,0,0,1,0-126.161A311.288,311.288,0,0,1,53.455,138,313.913,313.913,0,0,1,191.166,24.6,311.425,311.425,0,0,1,249.92,6.359a316.055,316.055,0,0,1,126.161,0A311.289,311.289,0,0,1,488,53.455,313.916,313.916,0,0,1,601.4,191.166a311.427,311.427,0,0,1,18.238,58.753,316.051,316.051,0,0,1,0,126.161A311.284,311.284,0,0,1,572.545,488,313.916,313.916,0,0,1,434.834,601.4a311.429,311.429,0,0,1-58.753,18.238A315.311,315.311,0,0,1,313,626ZM292,18C135.4,18,8,151.009,8,314.5S135.4,611,292,611s284-133.01,284-296.5S448.6,18,292,18Z" transform="translate(54 54)" fill="#0cd3e9"/></g><path d="M365,425.029V406.387C419.654,364.679,451,301.482,451,233S419.654,101.321,365,59.613V40.971A233.666,233.666,0,0,1,447.69,142.306a231.8,231.8,0,0,1,13.577,43.736,235.259,235.259,0,0,1,0,93.915,231.733,231.733,0,0,1-35.059,83.315A234.3,234.3,0,0,1,365,425.028ZM94,420.013h0a233.614,233.614,0,0,1-75.688-96.318A231.8,231.8,0,0,1,4.734,279.958a235.258,235.258,0,0,1,0-93.915,231.731,231.731,0,0,1,35.059-83.315A234.274,234.274,0,0,1,94,45.987v19.2a217.743,217.743,0,0,0,0,335.632v19.2Z" transform="translate(1152 246)" fill="url(#c)"/><path d="M299.6,356.212v-15.3c44.861-34.235,70.59-86.108,70.59-142.319S344.459,90.507,299.6,56.273v-15.3a191.8,191.8,0,0,1,67.873,83.177,190.26,190.26,0,0,1,11.144,35.9,193.1,193.1,0,0,1,0,77.087,190.21,190.21,0,0,1-28.777,68.386,192.319,192.319,0,0,1-50.239,50.69ZM77.156,352.095h0A191.753,191.753,0,0,1,15.03,273.034a190.264,190.264,0,0,1-11.144-35.9,193.1,193.1,0,0,1,0-77.087A190.208,190.208,0,0,1,32.662,91.662,192.3,192.3,0,0,1,77.156,45.088V60.846a178.727,178.727,0,0,0,0,275.492v15.757Z" transform="translate(1442.444 209.804) rotate(56)" fill="url(#c)"/><g transform="matrix(1, 0, 0, 1, 1037, 112)" filter="url(#f)"><circle cx="128" cy="128" r="128" transform="translate(220 239)" fill="url(#e)"/></g><circle cx="117.5" cy="117.5" r="117.5" transform="translate(1268 362)"/><text transform="translate(1335 532)" fill="#13a1e1" font-size="149" font-family="Harrington"><tspan x="0" y="0">E</tspan></text></g></svg>