<svg xmlns="http://www.w3.org/2000/svg" xmlns:xlink="http://www.w3.org/1999/xlink" width="124.726" height="247.581" viewBox="0 0 124.726 247.581"><defs><filter id="a" x="44.63" y="64.904" width="23.76" height="23.76" filterUnits="userSpaceOnUse"><feOffset dy="3" input="SourceAlpha"/><feGaussianBlur stdDeviation="3" result="b"/><feFlood flood-opacity="0.161"/><feComposite operator="in" in2="b"/><feComposite in="SourceGraphic"/></filter><filter id="c" x="89.054" y="61.41" width="23.261" height="23.261" filterUnits="userSpaceOnUse"><feOffset dy="3" input="SourceAlpha"/><feGaussianBlur stdDeviation="3" result="d"/><feFlood flood-opacity="0.161"/><feComposite operator="in" in2="d"/><feComposite in="SourceGraphic"/></filter></defs><g transform="translate(-235.547 -2202)"><g transform="translate(235.547 2202)"><rect width="3.64" height="30.012" rx="1.82" transform="translate(121.086 56.162)" fill="#3f3d56"/><rect width="2.043" height="9.88" rx="1.021" transform="translate(0.074 32.651)" fill="#3f3d56"/><rect width="2.303" height="17.197" rx="1.151" transform="translate(0 50.739)" fill="#3f3d56"/><rect width="2.191" height="17.346" rx="1.096" transform="translate(0.037 73.954)" fill="#3f3d56"/><rect width="121.82" height="247.581" rx="35.694" transform="translate(1.232)"/><rect width="17.012" height="3.454" rx="1.727" transform="translate(50.39 7.393)" fill="#e6e8ec"/><circle cx="1.959" cy="1.959" r="1.959" transform="translate(69.974 7.161)" fill="#c6d4f1"/><path d="M467.014,126.422V341.755a9.674,9.674,0,0,1-9.674,9.672H369.916a9.674,9.674,0,0,1-9.676-9.674V126.422a9.675,9.675,0,0,1,9.676-9.676H383v1.68a7.969,7.969,0,0,0,7.967,7.967h44.46a7.967,7.967,0,0,0,7.967-7.967v-1.68h13.947a9.675,9.675,0,0,1,9.676,9.676Z" transform="translate(-351.485 -110.297)" fill="#fff"/><path d="M439.723,642.172l1.088.311a3.672,3.672,0,0,1,5.837-1.612l-1.662,1.612h4.15v-4.034l-1.673,1.6a4.808,4.808,0,0,0-7.741,2.12Z" transform="translate(-402.911 -447.842)" fill="#030303"/><rect width="45.889" height="5.648" transform="translate(12.514 204.626)"/><rect width="97.073" height="5.648" transform="translate(12.514 216.938)"/><g transform="translate(121.952 111.244)" opacity="0.1"><path d="M681.249,414.612l-.006,0a2.489,2.489,0,0,0-.326-.864c.1-.041.2-.084.3-.129A2.492,2.492,0,0,1,681.249,414.612Z" transform="translate(-680.917 -413.622)"/></g></g><g transform="translate(244.302 2208.449)"><path d="M467.014,126.422V341.755a9.674,9.674,0,0,1-9.674,9.672H369.916a9.674,9.674,0,0,1-9.676-9.674V126.422a9.675,9.675,0,0,1,9.676-9.676H383v1.68a7.969,7.969,0,0,0,7.967,7.967h44.46a7.967,7.967,0,0,0,7.967-7.967v-1.68h13.947a9.675,9.675,0,0,1,9.676,9.676Z" transform="translate(-360.24 -116.746)" fill="#111219"/><g transform="translate(34.063 113.431)" opacity="0.5"><rect width="37.81" height="8.021" fill="#13a1e1"/></g><line x2="102.325" transform="translate(2.203 83.148)" fill="none" stroke="rgba(212,209,211,0.44)" stroke-width="1"/><line x2="102.325" transform="translate(1.704 78.655)" fill="none" stroke="rgba(212,209,211,0.44)" stroke-width="1"/><line x2="102.325" transform="translate(1.704 73.165)" fill="none" stroke="rgba(212,209,211,0.44)" stroke-width="1"/><line x2="102.325" transform="translate(1.704 67.674)" fill="none" stroke="rgba(212,209,211,0.44)" stroke-width="1"/><path d="M478.786,698.05c0-11.71,9.529-20.7,21.239-20.7h.15V672H500c-14.65,0-26.565,11.385-26.565,26.035a26.52,26.52,0,0,0,9.1,20l3.773-3.779A21.189,21.189,0,0,1,478.786,698.05Z" transform="translate(-447.398 -536.592)" fill="#0cd3e9"/><path d="M510.41,672v5.331a21.239,21.239,0,1,1-13.856,37.436l-3.774,3.774A26.555,26.555,0,1,0,510.41,672Z" transform="translate(-457.084 -536.592)" fill="#6c63ff" opacity="0.5"/><path d="M526.593,320.794H427.18V305.646l9.119,4.493,9.435,1.279,8.279-2.5L464,301.176l5.025-2.9,3.672-.707,3.514.189,5.78,2.853,7.855,5,6.163.794,4.89-1.686,10.36-8.487,5.291-1.884,5.535.855,4.506,2.6Z" transform="translate(-424.141 -230.794)" fill="#6c63ff" opacity="0.5"/><path d="M460.662,403.171c-8.955,0-17.228-5.841-17.332-5.915l.247-.393c.127.09,12.865,9.079,23.685,4.575,3.945-1.644,6.756-4.193,9.473-6.664,2.837-2.577,5.517-5.013,9.169-6.07a13.074,13.074,0,0,1,12.248,2.935c2.973,2.606,8.9,6.783,15.152,5.55,3.191-.639,5.879-3.124,8.726-5.755,5.448-5.052,11.1-10.267,20.864-2.785l-.262.386c-9.477-7.266-14.987-2.175-20.313,2.75-2.891,2.672-5.625,5.2-8.932,5.86-6.436,1.289-12.483-2.98-15.516-5.64a12.652,12.652,0,0,0-11.849-2.843c-3.557,1.028-6.2,3.43-9,5.973-2.746,2.5-5.588,5.075-9.6,6.744A17.475,17.475,0,0,1,460.662,403.171Z" transform="translate(-440.219 -321.893)" fill="#0cd3e9"/><g transform="matrix(1, 0, 0, 1, -8.75, -6.45)" filter="url(#a)"><circle cx="2.88" cy="2.88" r="2.88" transform="translate(53.63 70.9)" fill="#6c63ff"/></g><g transform="matrix(1, 0, 0, 1, -8.75, -6.45)" filter="url(#c)"><circle cx="2.63" cy="2.63" r="2.63" transform="translate(98.05 67.41)" fill="#6c63ff"/></g></g></g></svg>