<svg xmlns="http://www.w3.org/2000/svg" xmlns:xlink="http://www.w3.org/1999/xlink" width="281.615" height="209.183" viewBox="0 0 281.615 209.183"><defs><linearGradient id="a" x1="0.322" y1="0.267" x2="0.67" y2="0.855" gradientUnits="objectBoundingBox"><stop offset="0" stop-color="#000592" stop-opacity="0.678"/><stop offset="1" stop-color="#43a0f2"/></linearGradient></defs><path d="M271.138,63.86C239.176,19.382,171.657,1.34,105.253,20.772,70.147,31.045,36.3,51.628,19.525,91.485c-29.986,71.247,32.973,94,74.142,101.254a222.634,222.634,0,0,1,55.789,17.417c30.824,14.429,85.384,27.214,126.525-32.888C305.8,133.705,292.431,93.487,271.138,63.86Z" transform="translate(-11.697 -13.011)" fill="url(#a)"/><path d="M137.626,243.811a8.23,8.23,0,0,0-.538-2.059.932.932,0,0,0-.474-.584.977.977,0,0,0-.47-.005l-2.414.369a.926.926,0,0,0-.551.214c-.314.331,0,.863-.014,1.319a1.24,1.24,0,0,1-.961,1.067,3.633,3.633,0,0,1-1.527-.019l-3.376-.525a5.566,5.566,0,0,0,2.554-1.7c.444-.526.681-1.509.039-1.758a1.576,1.576,0,0,0-.586-.047c-1.53.012-2.733-1.265-4.165-1.8a4.605,4.605,0,0,0-5.183,1.545l1.8.087a.8.8,0,0,1,.479.128c.394.324-.1.946-.04,1.453.072.659.947.8,1.606.866s1.5.6,1.179,1.184c-3.314,1.142-6.687-2.231-10.167-1.816a20.652,20.652,0,0,0-2.573.669c-5.254,1.329-10.685-2.217-16.052-1.466a20.384,20.384,0,0,0-3.5.924,4.724,4.724,0,0,0-2.023,1.055,1.621,1.621,0,0,0-.23,2.089,11.757,11.757,0,0,1-4.121-.392,2.308,2.308,0,0,1,1.187,2.034,24.45,24.45,0,0,0-6.263,1.91,10.549,10.549,0,0,0,1.3,1.727l-2.739,1.76a1.563,1.563,0,0,1,.866,2.283c.96-.427,1.554-1.531,2.581-1.755a3.477,3.477,0,0,1,1.994.387,3.115,3.115,0,0,0,2,.315c.66-.194,1.147-1.05.728-1.6a34.159,34.159,0,0,1,8.677-1.356,1.088,1.088,0,0,1,.657.125c.383.265.282.839.261,1.3s.342,1.076.758.867c-.489.424-.071,1.223.4,1.668s1.035,1.061.748,1.641c-.075.151-.2.273-.274.425-.213.451.125.977.524,1.276a4.467,4.467,0,0,1,1.164.923c.277.415.151,1.141-.344,1.2l-1.408-1.788a3.666,3.666,0,0,0-.951,1.8,3.782,3.782,0,0,1,.468,5.173,12.925,12.925,0,0,1-2.34,1.792,3.215,3.215,0,0,0-1.524,2.4,12.491,12.491,0,0,0,.5,4.863,74.906,74.906,0,0,0,4.067,8.484c.4.72.922,1.508,1.737,1.632q-1.545-3.761-2.782-7.639a1.751,1.751,0,0,1,1.472.48,3.052,3.052,0,0,1,.286,1.287,3.987,3.987,0,0,0,.508,1.2l4.918,8.761a3.625,3.625,0,0,0,1.655,1.8,9.359,9.359,0,0,1,1.533.423c.359.212.6.589.968.789,1.036.565,2.477-.519,3.445.156a9.685,9.685,0,0,1,.708.72c.894.774,2.361.256,3.394.834a4.01,4.01,0,0,1,1.365,1.792c.889,1.69,2.327,3.346,4.232,3.481a11.794,11.794,0,0,1,1.795.062c.585.133,1.161.644,1.067,1.236-.161,1.016.341,2.128.206,3.148-.246,1.857-2.88,2.673-3.106,4.533a10.52,10.52,0,0,1-.069,1.226c-.119.489-.486.886-.616,1.372a2.606,2.606,0,0,0,1.136,2.455,6.628,6.628,0,0,1,1.984,2.019,10.412,10.412,0,0,1,.349,2.982c.3,2.178,2.178,3.793,4.115,4.834a4.3,4.3,0,0,1,1.605,1.175,6.387,6.387,0,0,1,.615,2.523c.408,2.1,2.177,3.834,2.227,5.974.036,1.521-.81,2.9-1.315,4.337a10.114,10.114,0,0,0,.826,8.388,13.43,13.43,0,0,1,1.1,1.931c.477,1.234.322,2.638.762,3.886.582,1.65,2.179,3.013,2.026,4.756a5.783,5.783,0,0,0,3.938,2.7l2.887.8a3.709,3.709,0,0,0,1.693.2,1.271,1.271,0,0,0,1.086-1.152,10.548,10.548,0,0,1-4.044-1.521,3.6,3.6,0,0,1-1.524-3.781c.205-.641.642-1.381.227-1.91-.238-.3-.673-.382-.941-.659a1.439,1.439,0,0,1,.026-1.677,5.66,5.66,0,0,0,.857-1.574,1.642,1.642,0,0,0-.77-1.708,4.082,4.082,0,0,0,1.429-.917,1.393,1.393,0,0,0,.254-1.579,2.753,2.753,0,0,0,2.49-.506,2.231,2.231,0,0,0,.247-2.021,8.628,8.628,0,0,1-.5-2.052,37.4,37.4,0,0,0,6.068-.206,3.935,3.935,0,0,0-1.845-2.311,3.2,3.2,0,0,0,2.031-2.125,5.468,5.468,0,0,0,.037-2.744,1.473,1.473,0,0,1-.027-.719,1.4,1.4,0,0,1,.722-.7l4.527-2.6a2.637,2.637,0,0,0,.724-.534,2.151,2.151,0,0,0,.161-2.088,10.488,10.488,0,0,1-.725-2.065c-.28-2.17,2.043-3.727,2.827-5.77a8.7,8.7,0,0,0,.43-2.53,3,3,0,0,0-.638-2.582c-.677-.568-1.735-.442-2.444-.97-.65-.485-.874-1.426-1.584-1.818-.645-.356-1.453-.129-2.17-.3-1.262-.294-2.057-1.749-3.346-1.884-.727-.076-1.55.28-2.147-.144-.525-.373-.546-1.123-.646-1.76a4.915,4.915,0,0,0-3.967-3.98,5.55,5.55,0,0,1-2.2-.487c-.646-.417-.942-1.2-1.45-1.776a6.067,6.067,0,0,0-3.312-1.546l-4.908-1.154c-.871-.2-1.994-.313-2.462.45a3.528,3.528,0,0,0-.291.916,2.836,2.836,0,0,1-2.667,2.008,3.154,3.154,0,0,0-1.86-1.439,11.6,11.6,0,0,1-1.505-.358,2.114,2.114,0,0,1-.917-2.933,2.631,2.631,0,0,0-.45-3.165,4.271,4.271,0,0,0-3.161-.855c-.293-.64.2-1.361.725-1.826s1.169-.922,1.284-1.616c.181-1.092-1.212-1.921-2.27-1.6a3.937,3.937,0,0,0-2.179,2.366,6.964,6.964,0,0,1-.878,1.683,1.724,1.724,0,0,1-1.669.684c-.871-.223-1.207-1.257-1.4-2.135a13.886,13.886,0,0,1-.465-3.577,4.678,4.678,0,0,1,1.349-3.258c1.448-1.329,3.669-1.2,5.623-.987a1.428,1.428,0,0,1,.146-1.886,2.144,2.144,0,0,1,1.944-.478,2.679,2.679,0,0,1,1.506.9,14.145,14.145,0,0,1,1.133,2.359c.42.768,1.363,1.424,2.136,1.012a1.8,1.8,0,0,0,.607-2.019,7.591,7.591,0,0,1-.459-2.209c.115-1.438,1.606-2.3,2.922-2.9s2.822-1.389,3.031-2.817a2.569,2.569,0,0,1,.156-.819,1.606,1.606,0,0,1,.589-.554c3.84-2.538,7.744-5.106,12.133-6.493.228-.072.255.008.488-.048.326-.188.11-.709-.2-.919s-.73-.371-.809-.738c-.058-.27.1-.536.142-.809a1.01,1.01,0,0,0-1.326-1.024c-.353-.467.345-1.009.909-1.165a24.691,24.691,0,0,1,5.187-.847.934.934,0,0,1,.59.1.706.706,0,0,1,.048.963,5.669,5.669,0,0,1-.794.721,2.167,2.167,0,0,0-.562,2.179,4.938,4.938,0,0,0,2.926.781c1.014-.164,1.914-1.3,1.438-2.214-.444-.848-1.777-1.039-2.007-1.968-.268-1.088,1.271-2.055.924-3.12-.152-.467-.617-.741-.974-1.078a2.925,2.925,0,0,1-.64-3.243,3.69,3.69,0,0,1-3.237-1.013c-.774-.781-1.392-2.014-2.491-1.979-1.009.032-1.878,1.209-2.821.85-.232-.088-.477-.268-.7-.163a.58.58,0,0,0-.262.434c-.24,1.146.173,2.452-.452,3.442-.68,1.078-2.252,1.227-3.076,2.2-.447.528-.621,1.238-1.032,1.795s-1.284.91-1.777.425a2.45,2.45,0,0,0-.665-2.979,6.535,6.535,0,0,0-1.47-.715,8.718,8.718,0,0,1-1.642-.915,1.617,1.617,0,0,1-.6-.645,1.47,1.47,0,0,1,.041-1.02,4.171,4.171,0,0,1,3.319-2.751c.657-.089,1.422-.058,1.856-.558.23-.265.351-.665.685-.773a1.01,1.01,0,0,1,.632.078l2.452.863a1.721,1.721,0,0,0,.874.144.592.592,0,0,0,.512-.622c-.078-.407-.7-.6-.648-1.013a.676.676,0,0,1,.205-.345A8.767,8.767,0,0,1,145.6,242.9c.31.508-.18,1.11-.587,1.544s-.735,1.209-.242,1.543a1.351,1.351,0,0,0,.653.147,5.7,5.7,0,0,1,1.738.527q1.271.553,2.493,1.21a3.161,3.161,0,0,1,.063-1.606,1.087,1.087,0,0,1,1.288-.7c.487.189.737.834,1.256.893.692.079.966-.944.676-1.578s-.862-1.165-.91-1.86c-.032-.469.146-1.051-.228-1.335a1.02,1.02,0,0,0-.442-.155L142,239.806c-.556-.1-1.358-.024-1.383.54-.014.315.268.627.143.916-.133.309-.57.281-.888.39a1.214,1.214,0,0,0-.694,1.276,3.55,3.55,0,0,0,.586,1.438C139.156,244.112,138.235,244.065,137.626,243.811Z" transform="translate(-63.494 -184.162)" fill="#3f3d56"/><path d="M279.011,228.563a3.029,3.029,0,0,0-3.327,1,.666.666,0,0,0-.154.7c.185.315.656.19,1,.078a2.525,2.525,0,0,1,1.585-.038c.326.112.618.31.945.418a.952.952,0,0,0,.971-.142,1.264,1.264,0,0,0,.239-.907.729.729,0,0,0-.186-.6.953.953,0,0,0-.43-.127,1.48,1.48,0,0,1-.866-.506" transform="translate(-212.342 -176.855)" fill="#3f3d56"/><path d="M301.755,225.123a.771.771,0,0,0-.745,1.085,3.123,3.123,0,0,0,1.245.081,1.064,1.064,0,0,0,.87-.8,2,2,0,0,1-1.419-.271" transform="translate(-231.713 -174.354)" fill="#3f3d56"/><path d="M341.471,215.329a14.326,14.326,0,0,0-3.193,1.085,2.4,2.4,0,0,1,1.532,2.41,1.255,1.255,0,0,0,.015.6c.117.284.457.391.756.464a4.984,4.984,0,0,0,1.658.212,1.689,1.689,0,0,0,1.372-.839,5.982,5.982,0,0,1,.285-.675c.716-1.091,2.844.228,3.613-.826.271-.371.246-.93.6-1.225a1.346,1.346,0,0,1,.616-.235,43.245,43.245,0,0,1,4.679-.666c.744-.065,1.714-.332,1.72-1.079a12.96,12.96,0,0,0-8.267,1.112c-.922.462-2.141,1.433-3.028.821-.332-.229-.316-.846-.773-1.1A2.332,2.332,0,0,0,341.471,215.329Z" transform="translate(-260.112 -166.128)" fill="#3f3d56"/><path d="M388.442,216.6l1.316.253a1.705,1.705,0,0,0-1.774,1.848c1.232.412,2.576.011,3.874.066s2.808.982,2.587,2.262c-.067.387-.291.774-.174,1.149a4.279,4.279,0,0,0,.444.692,1.549,1.549,0,0,1-.29,1.6c-.344.459-.807.825-1.11,1.312-.752,1.213-.325,2.78.123,4.135a3.645,3.645,0,0,0,.7,1.4,3.688,3.688,0,0,0,2.714.781,2.4,2.4,0,0,0,1.958-.571c.582-.713.175-1.826.558-2.663a2.967,2.967,0,0,1,2.038-1.317,30.5,30.5,0,0,0,4.363-1.424c1.728-.795,3.342-2.033,5.242-2.135a7.2,7.2,0,0,0,1.592-.112,1.21,1.21,0,0,0,.962-1.122c-.033-.455-.418-.789-.718-1.131s-.537-.87-.26-1.232l4.978-.93c-.353-.962-.628-2.228.183-2.854.293-.226.684-.316.933-.589a1.207,1.207,0,0,0-.279-1.663,3.2,3.2,0,0,0-1.78-.54,47.768,47.768,0,0,0-6.564.058l-12.824.7a9.37,9.37,0,0,0-2.643.269,12.2,12.2,0,0,1-1.907.865C391.271,216.006,389.719,215.805,388.442,216.6Z" transform="translate(-297.916 -165.682)" fill="#3f3d56"/><path d="M486.7,266.136a.529.529,0,0,0-.383.087.483.483,0,0,0-.125.3,1.95,1.95,0,0,0,.283,1.4,1.367,1.367,0,0,0,1.251.6c.592-.076,1.029-.581,1.574-.828.839-.38,4.4-.972,1.938-2.3-.85-.459-1.4-.054-2.069.249A4.707,4.707,0,0,1,486.7,266.136Z" transform="translate(-372.599 -204.82)" fill="#3f3d56"/><path d="M576.255,219.909a1.408,1.408,0,0,0-.685.6.6.6,0,0,0,.226.8.9.9,0,0,0,.336.053l1.171.035c.5.015,1.119.121,1.252.6.1.356-.123.813.145,1.068a.755.755,0,0,0,.4.155,2.714,2.714,0,0,0,1.18.038c.852-.229.4-.749.673-1.212.41-.708.339-.28,1.063-.686.534-.3,1.225-.844.779-1.608C582.017,218.419,577.4,219.338,576.255,219.909Z" transform="translate(-440.557 -169.746)" fill="#3f3d56"/><path d="M658.585,219.391l-.68.091a27.387,27.387,0,0,0-4.552.872,7.577,7.577,0,0,0,1.994.489,6.122,6.122,0,0,1,1.117.159c.652.194,1.309.7,1.94.439.391-.159.518-.566.842-.782.224-.149,1.071-.39,1.166-.54C661.177,218.9,659.174,219.313,658.585,219.391Z" transform="translate(-499.776 -169.897)" fill="#3f3d56"/><path d="M677.746,230.709a12.756,12.756,0,0,0-2.509,1.837,1.519,1.519,0,0,0-.617,1.111c.039.581.658.919,1.195,1.146l2.174.92c.264-.372.022-.885-.25-1.25s-.6-.788-.476-1.227c.137-.5.749-.672,1.262-.759.835-.141,3.089-.13,2.818-1.476C681.023,229.425,678.585,230.24,677.746,230.709Z" transform="translate(-515.951 -178.124)" fill="#3f3d56"/><path d="M685.389,578.957a2.074,2.074,0,0,0,.131,1.828,1.852,1.852,0,0,0,1.9.657,3.424,3.424,0,0,0,1.765-1.135,6.078,6.078,0,0,0,1.015-1.557,12.153,12.153,0,0,0,.752-2.753l.675-3.543c.151-.792.145-3.22-1.31-2.429a20.747,20.747,0,0,0-1.735,2.406,7.781,7.781,0,0,0-1.246,2.774C686.842,576.529,685.847,577.632,685.389,578.957Z" transform="translate(-524.031 -436.588)" fill="#3f3d56"/><path d="M1000.416,681.5a10.619,10.619,0,0,1-1.383-.659,11.66,11.66,0,0,0-.7,3.821l3.259-1.844c.49-.277,1.046-.663,1.035-1.226a.387.387,0,0,0-.18-.353.44.44,0,0,0-.228-.027,5.518,5.518,0,0,0-1.38.443,1.684,1.684,0,0,1-1.407.007" transform="translate(-762.186 -521.003)" fill="#3f3d56"/><path d="M1062.093,684.551a7.053,7.053,0,0,0-1.045.375,14.949,14.949,0,0,0-1.93,1.6,7.655,7.655,0,0,1-2.18,1,.523.523,0,0,0,.122.77,1.513,1.513,0,0,0,.861.193,4.546,4.546,0,0,0,2.316-.357,7.307,7.307,0,0,0,1.09-.866,11.552,11.552,0,0,1,2.745-1.552,3.146,3.146,0,0,0,.957-.572c.6-.6.647-1.515-.225-1.718C1064.1,683.265,1062.763,684.334,1062.093,684.551Z" transform="translate(-806.67 -522.954)" fill="#3f3d56"/><path d="M1101.443,660.362a2.719,2.719,0,0,0-.832-2.228,4.237,4.237,0,0,1-.5,2.373c-.329.483-.844.81-1.2,1.27a1.237,1.237,0,0,0-.1,1.594,1.583,1.583,0,0,0,.938.323,2.829,2.829,0,0,0,2.4-.453c.322-.332.479-.823.871-1.067a1.062,1.062,0,0,0,.382-.274c.162-.258-.1-.6-.385-.69s-.61-.049-.9-.137-.559-.416-.409-.681" transform="translate(-838.425 -503.727)" fill="#3f3d56"/><path d="M1012.289,532.776a3.78,3.78,0,0,1-1.349.079,4.885,4.885,0,0,1-1.936-1.165,8.54,8.54,0,0,0-4.989-1.743c-1.643-.031-3.3.414-4.914.1a1.938,1.938,0,0,0,1.142,1.287c.535.261,1.126.393,1.664.649a3.973,3.973,0,0,1,1.924,2,5.647,5.647,0,0,0,.544,1.2,2.762,2.762,0,0,0,2.45.821c1.169-.077,2.391-.413,3.479.022a8.937,8.937,0,0,1,2.123,1.628,2.388,2.388,0,0,0,2.472.578,4.087,4.087,0,0,1-2.828-3.932c.783.072,3.037.044,2.916-1.286C1014.885,531.891,1012.961,532.655,1012.289,532.776Z" transform="translate(-762.77 -406.22)" fill="#3f3d56"/><path d="M937.125,567.828c.139-.762.9-1.435.662-2.173a1.338,1.338,0,0,0-1.291-.775c-.536-.013-1.062.147-1.6.162a7.771,7.771,0,0,0-1.046.015c-1.063.175-1.719,1.289-2.721,1.686a16.537,16.537,0,0,1-1.928.361c-1.438.378-2.349,1.737-3.354,2.833a11.969,11.969,0,0,1-6.076,3.543,5.547,5.547,0,0,0-2.347.842,4.748,4.748,0,0,0-1.264,3,49.627,49.627,0,0,1-2.416,8.868l3.415.436a4.642,4.642,0,0,0,1.948-.028,5.658,5.658,0,0,0,1.281-.682,12.792,12.792,0,0,1,5-1.8,5.306,5.306,0,0,1,2.672.187,2.484,2.484,0,0,1,1.63,1.987,2.1,2.1,0,0,1,2.1.51,3.646,3.646,0,0,1,1,2c.09.467.18,1.027.614,1.223.354.16.76-.012,1.147-.043,1.313-.105,2.4,1.426,3.694,1.162,1.384-.283,1.724-2.356,3.075-2.771.776-.239,1.864.052,2.235-.67.327-.636-.326-1.37-.258-2.082.083-.877,1.117-1.249,1.914-1.623a5.97,5.97,0,0,0,2.721-7.718c-.789-1.617-2.342-2.889-2.629-4.665-.221-1.366.318-2.96-.553-4.035-.443-.547-1.193-.849-1.457-1.5a7.412,7.412,0,0,1-.189-1.311c-.089-.434-.468-.888-.9-.776-1.244.327-1.641,4.171-2.308,5.1A1.545,1.545,0,0,1,937.125,567.828Z" transform="translate(-697.846 -432.101)" fill="#3f3d56"/><path d="M909.7,547.356a2,2,0,0,0-1.3-.066c-.407.17-.645.769-.318,1.065a43.9,43.9,0,0,1,7.669.149c2.922.4,5.815,1.392,8.75,1.1a44.53,44.53,0,0,0-5.1-1.184l-2.874-.549a22.222,22.222,0,0,0-2.333-.361C912.553,547.374,911.313,547.808,909.7,547.356Z" transform="translate(-693.422 -419.347)" fill="#3f3d56"/><path d="M918.236,500.812c-.212-.018-.475-.033-.585.15s.015.4-.041.6c-.077.267-.427.336-.7.3a1.347,1.347,0,0,0-.818.009.694.694,0,0,0-.268.788,2.028,2.028,0,0,0,.473.754,7.7,7.7,0,0,0,1.227,1.231c.879.649,2.07.962,2.624,1.9a1.263,1.263,0,0,0,.35.472.975.975,0,0,0,.9-.091l1-.458a1.139,1.139,0,0,0,.469-.319,1.031,1.031,0,0,0-.1-1.088,1.87,1.87,0,0,1-.4-1.066c.074-.685.954-.947,1.316-1.533s.127-1.352.169-2.045c.049-.811.559-1.865-.261-2.471-.7-.515-1.362-.039-1.862.529C920.673,499.676,920.174,500.974,918.236,500.812Z" transform="translate(-699.396 -381.714)" fill="#3f3d56"/><path d="M950.879,452.508c.343.656,1.057,1.047,1.43,1.686.4.692.359,1.587.8,2.258.451.688,1.358,1.054,1.61,1.837.276.855-.35,1.894.149,2.641a1.109,1.109,0,0,0,1.626.149,1.193,1.193,0,0,0-.049-1.664c-.3-.269-.72-.386-.966-.7a1.467,1.467,0,0,1-.25-.609,3.988,3.988,0,0,1,.063-1.912.851.851,0,0,0,.048-.5c-.111-.323-.548-.346-.855-.5-.7-.34-.68-1.323-.558-2.089-.081.51-1.9-.357-2.087-.646-.378-.574-.172-1.68-.247-2.314A1.8,1.8,0,0,0,950.879,452.508Z" transform="translate(-725.949 -345.522)" fill="#3f3d56"/><path d="M869.784,500.238c-.335-.375-.84-.768-1.289-.541a.816.816,0,0,0-.3,1.007,2.215,2.215,0,0,0,.731.872,25.527,25.527,0,0,1,2.762,2.367c1.462,1.607,2.236,3.775,3.826,5.255a2.145,2.145,0,0,0,1.2.652.936.936,0,0,0,1.037-.716,1.365,1.365,0,0,0-.481-1c-.618-.672-1.294-1.29-1.877-1.992a1.674,1.674,0,0,1-.48-1c0-.378.342-.774.708-.68-.445-.114-.776-.856-1.429-1-.546-.117-.678.222-1.329-.057C871.625,502.871,870.653,501.211,869.784,500.238Z" transform="translate(-663.149 -383.16)" fill="#3f3d56"/><path d="M975.891,348.138a10.279,10.279,0,0,1-1.047-.374c-.921-.276-2.139.4-2.016,1.354.082.633.671,1.061,1,1.61a3.578,3.578,0,0,1,.1,2.761,2.16,2.16,0,0,1-.348.786,2.66,2.66,0,0,1-.825.593,11.036,11.036,0,0,0-3.229,2.743.79.79,0,0,0-.195.368c-.044.322.28.556.463.825.406.6.113,1.4.153,2.119a.6.6,0,0,0,.252.526c.245.124.535-.087.668-.327.441-.8.109-2.079.935-2.464.156-.073.346-.1.45-.241.166-.218.006-.54.09-.8.126-.391.661-.409,1.071-.391a6.08,6.08,0,0,0,2.088-.278,1.39,1.39,0,0,0,.691-.4,1.5,1.5,0,0,0,.176-1.139,15.437,15.437,0,0,0-1.824-5.565,3.316,3.316,0,0,0,2.142-.205c.351-.212.771-.845.6-1.277C977,347.678,976.507,348.252,975.891,348.138Z" transform="translate(-740.119 -267.595)" fill="#3f3d56"/><path d="M513.106,378.2a2.8,2.8,0,0,1,.02,1.405.961.961,0,0,1-1.087.686c-.352-.107-.555-.461-.805-.731-1.39-1.5-4.527-.632-5.385-2.489-.35-.758-.112-1.666-.351-2.466a2.194,2.194,0,0,0-2.222-1.51,4.566,4.566,0,0,0-1.279.382,32.247,32.247,0,0,1-8.473,2.119,6.965,6.965,0,0,0-1.628.3,5.155,5.155,0,0,0-2.59,2.669,20.651,20.651,0,0,1-1.787,3.355,14.9,14.9,0,0,1-3.033,2.592,3.094,3.094,0,0,0-1,1.049,3.28,3.28,0,0,0-.2,1.558l.218,6.425a5.8,5.8,0,0,0,.433,2.422,15.912,15.912,0,0,0,2.007,2.344,4.592,4.592,0,0,1,.953,2.932c-.013.425-.056.928.276,1.2a1.211,1.211,0,0,0,.677.195l8.691.711c1.529.125,3.223.331,4.221,1.5.471.55.849,1.34,1.571,1.4a5.837,5.837,0,0,0,.92-.126,2.26,2.26,0,0,1,1.9,1.184,5.252,5.252,0,0,1,.844,3.37c-.071.745-.3,1.469-.352,2.215-.189,2.84,2.219,5.308,2.265,8.155a10.168,10.168,0,0,1-1.542,4.723c1.251,1.895.227,4.418.724,6.633.472,2.1,2.224,3.746,2.661,5.856.2.966.211,2.154,1.063,2.651a2.423,2.423,0,0,0,1.2.241,15.856,15.856,0,0,0,7.22-1.644,3.776,3.776,0,0,0,2.328-2.463c.148-.936-.326-1.983.157-2.8.569-.961,2.028-.885,2.866-1.624,1.359-1.2.3-3.485.85-5.211.495-1.552,2.2-2.376,3.044-3.769a6.7,6.7,0,0,0,.707-1.917,27.34,27.34,0,0,0,.72-4.889,29.284,29.284,0,0,1,.221-2.995c.911-5.658,6.5-9.446,8.32-14.881.173-.519.255-1.21-.207-1.5a1.322,1.322,0,0,0-.879-.092l-4.006.505a2.758,2.758,0,0,1-1.482-.085.951.951,0,0,1-.542-1.224c.68-1.233-.719-2.79-1.341-4.053a59.808,59.808,0,0,0-5.956-9.659.981.981,0,0,1-.261-.567l1.137.038c-.384-1.377-1.017-2.884-2.355-3.388a5.863,5.863,0,0,0-2.393-.142A34.977,34.977,0,0,1,513.106,378.2Z" transform="translate(-370.404 -286.909)" fill="#3f3d56"/><path d="M543.621,235.108a3.883,3.883,0,0,0,2.151,1.431c1.541.2,2.649-1.4,3.354-2.78a1.359,1.359,0,0,0,1.418,1.257,2.8,2.8,0,0,0,1.066-.417,21.006,21.006,0,0,1,9.952-2.573,1.075,1.075,0,0,1,.821-1.181c.707-.14,1.344.471,1.686,1.107a6.1,6.1,0,0,0,1.1,1.847c.542.476,1.592.455,1.806-.234.206-.661-.483-1.225-1.055-1.615s-1.175-1.111-.79-1.686a51.407,51.407,0,0,1,8.856-1.425,3.709,3.709,0,0,0,1.491-.257,1.159,1.159,0,0,0,.7-1.225,3.376,3.376,0,0,1-3.523-1.329c4.151-.343,8.565-.634,12.243,1.319.441.948-1.808,1.736-1.206,2.591a1.09,1.09,0,0,0,.91.311,45.129,45.129,0,0,0,7.654-.292,10.249,10.249,0,0,1,2.784-.226c1.544.19,2.865,1.221,4.385,1.557a2.346,2.346,0,0,0,1.833-.218,1.162,1.162,0,0,0,.318-1.646c1.431-1.4,3.8-1.055,5.692-.383s3.675,1.754,5.673,1.9c1.432.107,2.885-.278,4.3-.033a26.764,26.764,0,0,1,2.587.793,19.775,19.775,0,0,0,5.09.385,35.669,35.669,0,0,1,12.711,2.526,3.779,3.779,0,0,1,1.413.835,1.385,1.385,0,0,1,.316,1.52l-4.182-.611c.394.776,1.413.908,2.241,1.175s1.686,1.182,1.189,1.9c-.9-.286-1.71.611-2.163,1.436s-1.005,1.813-1.945,1.864c-.842.045-1.86-.672-2.408-.032a16.425,16.425,0,0,1,1.935,3.094c.542,1.129.928,2.552.2,3.568a.925.925,0,0,1-.495.383c-.6.152-.987-.58-1.416-1.024a5.14,5.14,0,0,0-2.091-.98c-.732-.262-1.5-.778-1.561-1.554a3.1,3.1,0,0,1,.407-1.377,5.308,5.308,0,0,0,.4-2.38,2.7,2.7,0,0,0-.695-1.793,1.392,1.392,0,0,0-1.787-.184c-.235.2-.424.508-.73.52-.54.021-.955-.921-1.39-.6a1.477,1.477,0,0,1-.2.988c-1.3,1.128-3.291.651-4.963,1.05a9.313,9.313,0,0,0-2.264.989,1.457,1.457,0,0,0-.647.543,1,1,0,0,0,.389,1.2,3.091,3.091,0,0,0,1.284.438,12.63,12.63,0,0,1,5.718,2.294,5.613,5.613,0,0,1,2.156,5.487l-4.021-3.842q.229,2.42.26,4.853a2.182,2.182,0,0,1-.127.934c-.287.633-1.064.846-1.745.986a1.366,1.366,0,0,0-1.049,1.751,5.71,5.71,0,0,0,1.4,2.016,3.871,3.871,0,0,1,1.168,2.13c.072.822-.548,1.748-1.37,1.69a1.808,1.808,0,0,1-1.353-1.167,7.418,7.418,0,0,0-.824-1.677c-1.21-1.455-3.927-.832-5.011-2.383a2.451,2.451,0,0,0-.507,2.333,1.285,1.285,0,0,1,1.573.436,10.768,10.768,0,0,1,.855,1.562c.4.7,1.04,1.311,1.1,2.112a6.889,6.889,0,0,0,.015.908,3.67,3.67,0,0,0,.794,1.239,3.558,3.558,0,0,1,.2,3.311,10.21,10.21,0,0,1-1.951,2.833,34.172,34.172,0,0,1-4.249,4.279,4.464,4.464,0,0,0-1.206,1.214,1.316,1.316,0,0,0,.136,1.588c-.307.015-.858.166-1.165.182a27.072,27.072,0,0,1-.07-3.7c-1.212-.582-2.516.976-2.36,2.311s1.122,2.406,1.809,3.561a4.208,4.208,0,0,1,.708,2.8,2.057,2.057,0,0,1-2.012,1.777c-1.558-.136-2.209-2.372-3.752-2.628a.631.631,0,0,0-.406.04c-.229.126-.269.432-.281.693a8.6,8.6,0,0,0,.382,3.792c.731,1.727,2.62,3.177,2.224,5.01-2.134-.992-3.244-3.386-3.748-5.685s-.588-4.713-1.491-6.887c-.686.879-2.127.152-2.754-.77-.594-.874-.96-1.886-1.536-2.772a3.407,3.407,0,0,0-2.515-1.728,4.5,4.5,0,0,0-2.912,1.426,6.787,6.787,0,0,0-1.813,2.02,9.116,9.116,0,0,0-.465,3.913,5.975,5.975,0,0,1-1.311,3.995,2.9,2.9,0,0,1-3.858.469,4.348,4.348,0,0,1-1.078-1.939,94.955,94.955,0,0,1-2.917-10.414c-.181.8-.887,1.841-1.562,1.367a1.4,1.4,0,0,1-.36-.464,10.4,10.4,0,0,0-5.944-4.18c-2.355-.767-4.833-1.125-7.161-1.968a18.14,18.14,0,0,1-3.715-1.85,2.922,2.922,0,0,0-.178,2.989,2.381,2.381,0,0,0,2.686,1.124c.517-.165.954-.524,1.467-.7a1.144,1.144,0,0,1,1.426.4c.215.473-.11,1.046.051,1.54.245.752,1.38.81,1.777,1.5a1.377,1.377,0,0,1-.369,1.6,6.685,6.685,0,0,1-1.5.923c-1.67.928-2.857,2.513-4.316,3.747s-3.518,2.133-5.257,1.342c.415-2.1-2.086-3.64-2.546-5.73-.151-.688-.073-1.418-.289-2.089a6.81,6.81,0,0,0-1.88-2.373,9.313,9.313,0,0,1-2.554-6.776,9.513,9.513,0,0,0,0-2.583,1.936,1.936,0,0,0-1.757-1.618c-1.972.087-4.457.234-5.492-1.448a1.553,1.553,0,0,1,0-1.939,1.876,1.876,0,0,1,1.427-.245l4.444.437a4.912,4.912,0,0,0,3.055-.357c.892-.543,1.278-1.986.453-2.625-.6-.467-1.685-.442-1.86-1.185-.146-.619.539-1.32.169-1.837-.265-.371-.861-.268-1.223.01a7.833,7.833,0,0,1-1.028.895,3.125,3.125,0,0,1-2.32-.221c-.763-.239-1.786-.259-2.156.45-.414.793.367,1.831-.044,2.625-.543,1.05-2.382.452-3.145,1.355-.875,1.036.6,2.582.3,3.906a2.431,2.431,0,0,1-2.4-.135,2.326,2.326,0,0,1-1.005-2.166c.073-.6.384-1.2.176-1.766a2.073,2.073,0,0,0-1.05-.961l-4.319-2.387a1.953,1.953,0,0,0,.74,2.225,7.67,7.67,0,0,1,1.845,1.715,2.251,2.251,0,0,1-.847,2.967.52.52,0,0,1-.428.075.6.6,0,0,1-.278-.373,9.2,9.2,0,0,0-3.735-4.891c-1.829-1.019-4.457-.809-5.657.907-.285.408-.476.872-.724,1.3-1.318,2.289-4.145,3.374-6.786,3.3a1.348,1.348,0,0,1-.74-.174c-.427-.295-.408-.92-.342-1.435l.277-2.184a1.734,1.734,0,0,1,.483-1.2c.489-.386,1.2-.142,1.818-.151A2.3,2.3,0,0,0,518.819,255a2.6,2.6,0,0,0-.723-2.582c-.286-.268-.669-.605-.518-.967a.8.8,0,0,1,.561-.377c1.119-.325,2.3-.41,3.4-.794a3.533,3.533,0,0,0,2.428-2.3c.08-.348.116-.77.429-.942a1.287,1.287,0,0,1,.5-.1,2.412,2.412,0,0,0,2.069-2.515,1.574,1.574,0,0,1,1.777.295,5,5,0,0,0,1.582,1.079c1.157.315,2.275-.71,3.474-.714a4.476,4.476,0,0,0,1.5.005c.481-.173.768-.652,1.137-1.006s1.017-.569,1.358-.188l-.29-2.15a4.226,4.226,0,0,0,3.439-.622l-3.751-1.267a.815.815,0,0,1-.351-.188c-.273-.294,0-.751.22-1.085.531-.8.62-2.114-.253-2.512a2.144,2.144,0,0,0-1.85.373l-2.738,1.527c-.087.52.549.815.944,1.166a1.582,1.582,0,0,1-1.032,2.765,1.971,1.971,0,0,1,.352,1.672l-1.842.132a.8.8,0,0,1-.6-.117c-.2-.175-.17-.482-.216-.741a1.608,1.608,0,0,0-1.349-1.178,4.746,4.746,0,0,0-1.886.174,1.126,1.126,0,0,1-.811-.019.81.81,0,0,1-.321-.4,2.08,2.08,0,0,1,.419-2,11.078,11.078,0,0,1,1.57-1.444,9.154,9.154,0,0,0,2.722-4.221c1.014-.425,2.064-1,3.078-1.427a9.419,9.419,0,0,1,5.063-.981l3.434.066a8.234,8.234,0,0,1,3,.432,2.8,2.8,0,0,1,1.831,2.241.688.688,0,0,1-.22.629.811.811,0,0,1-.434.1C544.974,234.838,544.569,235.074,543.621,235.108Z" transform="translate(-393.862 -174.854)" fill="#3f3d56"/><path d="M513.928,306.11a1,1,0,0,0,.274-1.011,1.88,1.88,0,0,0-1.946.367,3.281,3.281,0,0,0-.521.689,3.074,3.074,0,0,0-.589,2.439.693.693,0,0,0,.317.434.833.833,0,0,0,.37.058A12.387,12.387,0,0,0,513.32,309c.3-.037.655-.123.772-.4.154-.371-.219-.79-.11-1.176a1.286,1.286,0,0,1,.317-.454.6.6,0,0,0,.187-.5c-.044-.181-.321-.284-.421-.127" transform="translate(-391.542 -235.094)" fill="#3f3d56"/><path d="M527.864,295.424a4.161,4.161,0,0,0-1.348-.085.588.588,0,0,0-.287.065.479.479,0,0,0-.177.256,1.273,1.273,0,0,0,.741,1.56,1.591,1.591,0,0,1,.46.185c.381.3.138.9.21,1.377.081.536.6.985.5,1.519-.075.42-.524.753-.451,1.174.076.441.635.573,1.08.608a1.359,1.359,0,0,0,.765-.088,1.185,1.185,0,0,0,.483-.7,4.484,4.484,0,0,0,.226-1.688,1.6,1.6,0,0,0-.19-.745,4.159,4.159,0,0,0-.445-.509C528.582,297.361,529.481,295.879,527.864,295.424Z" transform="translate(-402.9 -227.749)" fill="#3f3d56"/><path d="M411.765,394.776s-65.39-37.535-93.541-30.423c0,0-59.66,6.42-66.575,20.545,0,0-18.965-59.266-25.879-61.241" transform="translate(-174.533 -249.306)" fill="none" stroke="#fff" stroke-miterlimit="10" stroke-width="2" opacity="0.8"/><path d="M251.649,383.643c10.964-29.238,109.74-61.636,109.74-61.636-14.026,3.556-43.165,41.091-43.165,41.091s-61.636-44.844-92.454-40.7c0,0,135.718,4.445,185.995,71.118" transform="translate(-174.533 -248.05)" fill="none" stroke="#fff" stroke-miterlimit="10" stroke-width="2" opacity="0.8"/><circle cx="2.864" cy="2.864" r="2.864" transform="translate(48.373 71.487)" fill="#6c63ff"/><circle cx="2.864" cy="2.864" r="2.864" transform="translate(74.252 132.728)" fill="#6c63ff"/><circle cx="2.864" cy="2.864" r="2.864" transform="translate(183.992 71.092)" fill="#6c63ff"/><circle cx="2.864" cy="2.864" r="2.864" transform="translate(234.368 142.606)" fill="#6c63ff"/><circle cx="2.864" cy="2.864" r="2.864" transform="translate(140.827 112.183)" fill="#6c63ff"/></svg>