<svg xmlns="http://www.w3.org/2000/svg" xmlns:xlink="http://www.w3.org/1999/xlink" width="224.207" height="237.537" viewBox="0 0 224.207 237.537"><defs><linearGradient id="a" x1="0.5" y1="1" x2="0.5" gradientUnits="objectBoundingBox"><stop offset="0" stop-color="gray" stop-opacity="0.251"/><stop offset="0.54" stop-color="gray" stop-opacity="0.122"/><stop offset="1" stop-color="gray" stop-opacity="0.102"/></linearGradient></defs><g transform="translate(-42.608)"><ellipse cx="26.977" cy="2.859" rx="26.977" ry="2.859" transform="translate(163.456 231.819)" fill="#6c63ff" opacity="0.1"/><path d="M196.208,38.59c10.088-4.768,22.37-.667,32.858,5.313,32.94,18.788,56.938,54.451,76.005,90.786,6.9,13.156,13.461,26.892,16.056,41.579,5.284,29.894-8.5,60.841-31.938,71.686-7.971,3.692-16.728,5.205-25.5,6.049-15.6,1.5-31.743.906-47.214-4.657-11.033-3.976-21.47-10.371-31.48-17.436-27.956-19.742-53.486-45.379-71.869-76.695-8.063-13.736-14.883-29.221-15.08-45.069s7.926-31.774,21.291-34.468c5.525-1.113,11.37.045,17.072,1.238,8.4,1.758,16.9,3.606,25.2,2.84,8.574-.8,19.725-5.058,21.289-15.465C184.559,53.115,186.133,43.353,196.208,38.59Z" transform="translate(-55.436 -35.121)" fill="#6c63ff" opacity="0.1"/><path d="M341.386,800.375s12.694-.823,11.2,8.74a2.407,2.407,0,0,1-1.128,2.457s-.021-.71-1.3-.469a5.344,5.344,0,0,1-1.378.074,2.773,2.773,0,0,1-1.686-.749h0s-3.569-1.584-4.956-7.855c0,0-1.029-1.366-.986-1.719l2.141.984a4.414,4.414,0,0,0-.155,3.043s.068-2.98.481-2.913c.082.014,1.113.566,1.113.566s-1.26,2.893-.31,5c0,0-.36-3.566.7-4.787l1.51.947s-1.473,2.989-.474,5.426c0,0-.263-3.741.789-5.2l1.368,1.131s-1.384,2.946-.539,4.971c0,0,.108-4.357.834-4.686a8.6,8.6,0,0,1,1.378,1.6s-.947,2.138-.36,3.266c0,0,.36-2.9.658-2.915a10.057,10.057,0,0,1,1.315,3.241,7.39,7.39,0,0,0-1.029-3.424,3.492,3.492,0,0,1,1.826,1.015s-.187-1.36-2.117-1.479a8.759,8.759,0,0,0-1.249-1.547,7.3,7.3,0,0,1,3.088.385s-1.026-1.284-3.44-.7l-1.349-1.182a10.337,10.337,0,0,1,3.6.04s-1.234-1.131-3.967-.308l-1.468-.944a12.389,12.389,0,0,1,3.443-.32s-1.357-.786-3.874.065l-1.052-.506s1.578-.334,2.044-.387.487-.19.487-.19a5.124,5.124,0,0,0-2.97.354A11.764,11.764,0,0,1,341.386,800.375Z" transform="translate(-274.443 -582.056)" fill="#6c63ff"/><ellipse cx="8.985" cy="1.632" rx="8.985" ry="1.632" transform="translate(66.701 228.719)" fill="#6c63ff" opacity="0.1"/><path d="M277.018,777.645s7.157-.464,6.313,4.929a1.341,1.341,0,0,1-.634,1.386s-.013-.4-.734-.263a2.969,2.969,0,0,1-.776.04,1.538,1.538,0,0,1-.952-.421h0s-2.01-.9-2.8-4.431c0,0-.579-.772-.558-.97l1.21.565A2.5,2.5,0,0,0,278,780.2s.039-1.682.263-1.643c.047,0,.629.325.629.325a4.115,4.115,0,0,0-.174,2.828s-.205-2.01.395-2.7l.85.534a4.3,4.3,0,0,0-.263,3.06s-.145-2.109.445-2.929l.771.645a4.138,4.138,0,0,0-.3,2.8s.061-2.457.471-2.641a4.912,4.912,0,0,1,.776.9s-.526,1.2-.2,1.841c0,0,.2-1.635.371-1.643a5.607,5.607,0,0,1,.739,1.827,4.167,4.167,0,0,0-.579-1.931,1.961,1.961,0,0,1,1.028.566s-.1-.766-1.194-.834a4.919,4.919,0,0,0-.7-.871,4.107,4.107,0,0,1,1.741.215,1.868,1.868,0,0,0-1.941-.4l-.76-.667a5.863,5.863,0,0,1,2.033.023,2.333,2.333,0,0,0-2.238-.172l-.826-.534a7.009,7.009,0,0,1,1.939-.178,2.78,2.78,0,0,0-2.183.037l-.592-.283s.892-.189,1.152-.218.276-.108.276-.108a2.9,2.9,0,0,0-1.676.2A6.717,6.717,0,0,1,277.018,777.645Z" transform="translate(-227.08 -565.758)" fill="#6c63ff"/><ellipse cx="5.066" cy="0.922" rx="5.066" ry="0.922" transform="translate(49.801 217.745)" fill="#6c63ff" opacity="0.1"/><path d="M946.375,795.968s8.641-.565,7.628,5.938a1.633,1.633,0,0,1-.768,1.674s-.016-.484-.886-.319a3.637,3.637,0,0,1-.939.048,1.866,1.866,0,0,1-1.147-.509h0s-2.43-1.077-3.375-5.347c0,0-.7-.93-.671-1.168l1.457.667a3.01,3.01,0,0,0-.105,2.073s.047-2.03.326-1.979c.058,0,.757.39.757.39a4.937,4.937,0,0,0-.21,3.393s-.245-2.426.479-3.257l1.026.642a5.188,5.188,0,0,0-.321,3.7s-.176-2.545.526-3.537l.931.78s-.942,2-.368,3.393c0,0,.076-2.963.571-3.19a5.948,5.948,0,0,1,.936,1.089s-.644,1.456-.245,2.225c0,0,.245-1.979.447-1.979a6.81,6.81,0,0,1,.894,2.206,5,5,0,0,0-.7-2.33,2.39,2.39,0,0,1,1.242.69s-.126-.925-1.444-1.007a5.927,5.927,0,0,0-.847-1.052,4.968,4.968,0,0,1,2.1.26,2.259,2.259,0,0,0-2.344-.475l-.918-.806a7.059,7.059,0,0,1,2.454.026s-.842-.772-2.7-.209l-1-.642a8.5,8.5,0,0,1,2.344-.218,3.354,3.354,0,0,0-2.63.045l-.716-.345s1.076-.229,1.392-.263.332-.13.332-.13a3.5,3.5,0,0,0-2.02.24A8.447,8.447,0,0,1,946.375,795.968Z" transform="translate(-720.358 -578.899)" fill="#6c63ff"/><ellipse cx="6.116" cy="1.111" rx="6.116" ry="1.111" transform="translate(225.851 224.15)" fill="#6c63ff" opacity="0.1"/><path d="M738.864,439.755a21.649,21.649,0,0,1-.287-3.014c0-1.213-1.533-2.288-1.533-2.288s-.947-2.355-1.578-2.7-2.58-3.43-2.58-3.43a2.927,2.927,0,0,0-.586-1.663,24.118,24.118,0,0,1-1.6-2.59c-.263-.345-.132-.588-.526-2.6-.021-.1-.045-.206-.074-.3a.418.418,0,0,0-.042-.13,3.578,3.578,0,0,0,.744-3.515,1.43,1.43,0,0,0-.374-.622c-.444-.39-1.155-.229-1.612-.6l.487-2.313c.116-.565.176-1.281-.284-1.586a2.275,2.275,0,0,0-.542-.2,2.726,2.726,0,0,1-1.452-2.042,7.505,7.505,0,0,1-.158-2.545c.089-.82.313-1.617.395-2.44a7.1,7.1,0,0,0-.965-4.338,3.213,3.213,0,0,0-1.276-1.3,15.387,15.387,0,0,1-1.507-.565c-.978-.67-.928-2.262-1.71-3.175a3.191,3.191,0,0,0-3.3-.6,9.364,9.364,0,0,1-3.44.715c-.752-.09-1.457-.458-2.212-.543a2.169,2.169,0,0,0-.647.031v-.025A1.428,1.428,0,0,0,711,396.4a1.653,1.653,0,0,0-.037.413c0,.331.074.676.079.993a.991.991,0,0,1-.213.7c-.15.172-.371.263-.526.441a.736.736,0,0,0-.192.52c0,.5.584.947.976,1.151h.016c-.105.113-.21.232-.308.353a7.778,7.778,0,0,0-1.741,4.946,7.579,7.579,0,0,0,4.272,6.894l-.055.184a11.107,11.107,0,0,1-.387,1.069,1.851,1.851,0,0,0-1.652.2,3.912,3.912,0,0,1-2.615.416,33.11,33.11,0,0,0-4.8-.52c-.329.139-.978-.484-1.4.348s-.621,1.281-1.052,1.49-1.176.865-1.076,1-1.079.97-1.079.97a5.427,5.427,0,0,1-1.6,1.281,9.176,9.176,0,0,0-1.828,1.007l-1.439,1.21s-1.076.175-.75-.622-.589-1.8-.589-1.8-1.828-3.984-1.828-4.807a25.628,25.628,0,0,0-1.5-4.332l-.184-.02-.084-.257c-.276-.834-.634-1.858-.908-2.457-.526-1.145-.85-1.264-.85-1.264s-6.334-5.112-10.448-3.554,7.51,6.2,8.554,6.687a2.135,2.135,0,0,1,.813,1.36,5.571,5.571,0,0,0-2.249,2.174s2.515,5.992,2.58,7.482,1.731,5.655,1.731,5.655a3.743,3.743,0,0,0,3.982,2.91s4.637.916,5.65,0a7.98,7.98,0,0,1,2.417-1.739,1.916,1.916,0,0,0,.913-.693s-1.534,10.392-2.286,11.294-7.4,12.569-5.014,14.656a47.542,47.542,0,0,0,5.974,4.241c.2.107.81-.981,1.678-1.753v.6c.016,4.151.526,10.462,1.231,11.876,1.052,2.078.621,6.1.621,6.1a4.221,4.221,0,0,0,1.765.455c.032.136.068.283.1.424a59.639,59.639,0,0,0,1.986,6.916c.718,1.456,1.239,6.065,1.239,6.065a45.24,45.24,0,0,1,.263,5.161,32.527,32.527,0,0,0,.647,4.524h0c-.263,3.249-.763,9.512-.847,11.777h0v.164a.757.757,0,0,1,0,.076v.139h0a2.28,2.28,0,0,0,.016.427,1.484,1.484,0,0,1-.045.645,11.728,11.728,0,0,1-.708,1.815,9.025,9.025,0,0,0-.316.877,1.575,1.575,0,0,0-.763,1.165c-.326,1.352-.815,5.09-.815,5.09a9.8,9.8,0,0,1-.586,2.808c-.389.52-.789,3.775,1.991,4.191a3.92,3.92,0,0,0,3.982-1.583l-.1-9.071v-.017a1.421,1.421,0,0,0,.145-.246v-.023c.018-.042.039-.088.058-.139l.024-.068.042-.11a.186.186,0,0,1,0-.04,6.421,6.421,0,0,0,.237-2.7v-.382a1.148,1.148,0,0,1,.016-.187v-.034l.016-.11v-.048a.222.222,0,0,1,.021-.113.115.115,0,0,1,0-.028c.026-.13.058-.283.092-.407v-.031l.039-.136h0c.039-.144.084-.283.131-.435v-.028a.415.415,0,0,1,.045-.133v-.017c.047-.139.1-.283.145-.4l.013-.037.042-.113.013-.034.1-.252h0l.771,2.559a6.935,6.935,0,0,1,.2,2.355c-.229.45.263,2.322.587,2.355l-.3,2.355a38.665,38.665,0,0,0-.292,3.916c-.021.15-.042.283-.058.373a9.1,9.1,0,0,0,.295,3.079c2.578,3.277,5.65.255,5.65.255s.358-1.733,0-2.078-.2-1.595-.2-1.595.163-3.085.195-5.336a7.279,7.279,0,0,0-1.712-4.242l-.1.093a7.061,7.061,0,0,1-.605-2.372c.131-.8-.36-9.215-.36-9.215a53.643,53.643,0,0,0,.115-6.786h0c.042-.382.082-.758.121-1.131.2-1.81.358-3.356.421-4.168h0v-.1c.016-.218.024-.373.021-.447,0-.283,0-.605.026-.959.06-.973.2-2.056.2-2.056l.684-4.47a14.62,14.62,0,0,1,1.276-3.393l.089-.153h0c.029-.054.058-.113.089-.175l.013-.025c.029-.06.061-.122.089-.187l.013-.025c.105-.223.218-.481.337-.763,0-.023.018-.042.026-.065l.09-.215a.229.229,0,0,1,.034-.085c.013-.028.055-.144.084-.215a.86.86,0,0,0,.034-.088c.034-.085.071-.172.105-.263l.05-.13c.024-.065.05-.13.076-.2l.063-.173c.018-.042.034-.085.05-.127l.071-.2a.3.3,0,0,1,.034-.088c.187-.5.366-1,.526-1.445h0c.05-.141.1-.283.145-.407,1.673.11,2.809.209,2.809.209a44.508,44.508,0,0,0,.358-6.719,26.766,26.766,0,0,1,.413-5.373c.024-.139.045-.263.066-.376l.045.04c.818.693,1.4-1.595,1.4-1.595s-.221-2.135-.526-4.722l-.032-.257a11.575,11.575,0,0,0,1.428.235s.263-.025.623-.073a16.7,16.7,0,0,0,3.141,1.527l1.739-3.45a14.28,14.28,0,0,1,1.144-2.044c.526-.693,2.383-2.91,2.352-3.325a12.3,12.3,0,0,1,1.273-3.882A9.086,9.086,0,0,0,738.864,439.755Zm-7.249,2.633c-.686.311-1.339,2.044-1.37,2.565s-.752,2.805-1.5,3.082a10.111,10.111,0,0,0-2.223,1.77c-.216.02-.46.051-.716.1a28.772,28.772,0,0,0-.752-4.36c-.526-1.041.576-4.366.576-4.366s.108-3.359.789-4.157.526-2.808.526-2.808.163-.831.229-1.21.971,0,.979,0h0a4.5,4.5,0,0,1,2.025,2.6c.263,1.558,2.188,4.261,2.188,4.261a2.179,2.179,0,0,0,0,1.414C732.659,441.749,732.3,442.077,731.615,442.388Z" transform="translate(-521.456 -291.333)" fill="url(#a)"/><path d="M707,450.922a5.141,5.141,0,0,1,5.261-2.664V452.3h-2.286l-1.789-.486Z" transform="translate(-544.064 -329.932)" fill="#4c4981"/><path d="M707,450.922a5.141,5.141,0,0,1,5.261-2.664V452.3h-2.286l-1.789-.486Z" transform="translate(-544.064 -329.932)" opacity="0.1"/><path d="M690.359,429.61l-2.8,2.109s-.023-.421-.094-1c-.139-1.091-.452-2.729-1.128-3.045-1.028-.486-12.478-5.118-8.417-6.676s10.293,3.549,10.293,3.549.321.119.834,1.258c.263.6.623,1.62.894,2.454C690.188,429.014,690.359,429.61,690.359,429.61Z" transform="translate(-521.992 -310.23)" fill="#ae6e79"/><path d="M712.545,431.671l.319-.161.894,1.1-.731,1.677-1.247-.537.289-1.34Z" transform="translate(-521.799 -309.011)" fill="#4c4981"/><path d="M788.829,811s-.8-.1-1.126,1.247-.8,5.09-.8,5.09a9.8,9.8,0,0,1-.579,2.8c-.387.52-.771,3.769,1.962,4.182a3.861,3.861,0,0,0,3.924-1.581l-.1-9.068Z" transform="translate(-602.32 -589.685)" fill="#444053"/><path d="M821.067,812.44a7.267,7.267,0,0,1,1.688,4.224c-.031,2.245-.195,5.325-.195,5.325s-.158,1.247.195,1.592,0,2.076,0,2.076-3.025,3.017-5.566-.255a9.263,9.263,0,0,1-.289-3.074c.205-1.2.779-6.619.779-6.619Z" transform="translate(-625.02 -590.722)" fill="#444053"/><path d="M804.487,661.383a60.214,60.214,0,0,1-2.478,6.43,14.49,14.49,0,0,0-1.252,3.393l-.676,4.459a26.707,26.707,0,0,0-.226,3.009c.031,1-1.673,15.628-1.673,15.628l-2.7,3.7s-1.189,2.593-1,3.676a5.684,5.684,0,0,1-.526,3.32s-.063,3.393-.161,4.148.355,2.907,0,3.286-5.082.209-5.211-.416a19.72,19.72,0,0,1,.579-3.631l.418-2.9s.837-1.589.645-2.109.352-1.728.384-1.832.9-1.8.742-2.454,1.013-14.608,1.013-14.608l3.312-25Z" transform="translate(-604.179 -481.014)" fill="#ae6e79"/><path d="M804.487,661.4s-.263.786-.623,1.818a36.6,36.6,0,0,1-1.854,4.612,14.679,14.679,0,0,0-1.255,3.393l-.676,4.462a26.94,26.94,0,0,0-.223,3.009c0,.4-.247,2.921-.563,5.831-.487,4.448-1.11,9.8-1.11,9.8l-2.7,3.7s-.137.283-.308.73a7.2,7.2,0,0,0-.689,2.935,5.705,5.705,0,0,1-.526,3.32s-.066,3.393-.161,4.148.355,2.9,0,3.286-5.082.209-5.211-.413a19.761,19.761,0,0,1,.579-3.631l.418-2.907s.837-1.589.642-2.109.355-1.728.387-1.832.9-1.8.742-2.454c-.124-.5.526-8.692.829-12.578.1-1.221.168-2.016.168-2.016l2.849-21.507.232-1.733.231-1.759Z" transform="translate(-604.179 -481.028)" opacity="0.1"/><path d="M798.947,717.745c.029.382-4.537.936-5.19.52s0-5.568,0-5.568l.3-2.35c-.318-.037-.8-1.9-.579-2.352a7.059,7.059,0,0,0-.192-2.35l-.758-2.545-.463-1.558a73.422,73.422,0,0,1-2.517-10.674,33.063,33.063,0,0,1-.637-4.507,45.911,45.911,0,0,0-.263-5.152s-.526-4.6-1.221-6.051a60.2,60.2,0,0,1-1.957-6.9c-.289-1.2-.489-2.056-.489-2.056s4.861-.438,7.81-.591c1.355-.071,2.307-.079,2.2.039a4.6,4.6,0,0,0-.134,1.668,46.723,46.723,0,0,0,.647,7.669,28.371,28.371,0,0,1,.708,6.673,22.615,22.615,0,0,0-.129,3.458,16.635,16.635,0,0,1,.568,3.752,54.546,54.546,0,0,1-.111,6.755s.481,8.4.352,9.2,1.029,3.286,1.029,3.769.321,3.769.321,3.769S798.926,717.366,798.947,717.745Z" transform="translate(-601.533 -485.372)" fill="#ae6e79"/><path d="M813.933,455.792l-.552.642-.36.419-2.1,2.432-5.437.659-2.893-.831-.716-.206s0-1.561.129-3.433c.184-2.4.623-5.316,1.673-6.111A4.457,4.457,0,0,0,804.9,447.7a9.784,9.784,0,0,0,.526-1.4c.021-.062.037-.122.055-.184a16.659,16.659,0,0,0,.51-2.565s.694-.413,1.66-.894c2.517-1.264,6.865-3.009,5.353.894a16.03,16.03,0,0,0-.568,1.753c-.024.088-.045.175-.063.26a6.063,6.063,0,0,0,.205,4.216h0a2.656,2.656,0,0,0,.218.359,1.831,1.831,0,0,0,.366.4l.626,4.273.053.353Z" transform="translate(-613.98 -324.857)" fill="#ae6e79"/><path d="M822.958,444.288c-.287.741.14-.605,0,0-1.147.877-3.848,3.373-5.366,3.373a3.991,3.991,0,0,1-2.212-.628,16.46,16.46,0,0,0,.566-2.746S825.049,438.893,822.958,444.288Z" transform="translate(-623.937 -325.411)" opacity="0.1"/><path d="M813.7,415.179a7.365,7.365,0,0,1-6.279,7.5,6.994,6.994,0,0,1-.734.042,7.558,7.558,0,1,1,7.013-7.539Z" transform="translate(-612.366 -300.867)" fill="#ae6e79"/><path d="M808.15,505.186l-1,2.8s-.813.037-2.081.079c-4.28.147-13.709.334-14.13-.848a3.216,3.216,0,0,1-.147-.93,19.461,19.461,0,0,1,.726-4.567s.45-5.534.45-5.774-.387-4.117-.387-4.117l.773-3.11,2.154-1.626s.965,1.592,1.544,1.728a3.992,3.992,0,0,1,1.352.9s1.9,1.244,2.509.551a64.559,64.559,0,0,1,5.371-3.735l2.509,2.975Z" transform="translate(-605.814 -357.347)" opacity="0.1"/><path d="M808.172,506.706l-1,2.8s-.813.039-2.081.082h-.124c-.547.02-1.173.04-1.841.054a73.752,73.752,0,0,1-10.535-.283c-.921-.141-1.523-.345-1.623-.622a2.651,2.651,0,0,1-.116-.515c-.016-.13-.026-.283-.031-.416a19.459,19.459,0,0,1,.726-4.567s.45-5.534.45-5.774-.387-4.117-.387-4.117l.773-3.11,1.481-1.114.674-.509a10.784,10.784,0,0,0,.739,1.046,2,2,0,0,0,.8.681,4.007,4.007,0,0,1,1.352.9s1.9,1.244,2.509.551a48.625,48.625,0,0,1,4.7-3.3c.411-.269.676-.435.676-.435l.337.4,2.173,2.573Z" transform="translate(-605.836 -358.436)" fill="#fff"/><path d="M719.536,448.779l-2.8,2.109s-.024-.421-.095-1a5.881,5.881,0,0,0,2.467-2.46C719.365,448.182,719.536,448.779,719.536,448.779Z" transform="translate(-551.169 -329.383)" opacity="0.1"/><path d="M722.23,456.641l-.61-.175a5.374,5.374,0,0,1-1.578,1.281,9.007,9.007,0,0,0-1.8,1l-1.418,1.21s-1.052.175-.739-.622-.579-1.8-.579-1.8-1.8-3.976-1.8-4.807a25.332,25.332,0,0,0-1.489-4.321s-1.868,3.908-5.276,2.664c0,0,2.478,5.981,2.541,7.468s1.7,5.636,1.7,5.636a3.709,3.709,0,0,0,3.924,2.907s4.569.913,5.566,0a8.053,8.053,0,0,1,2.367-1.736,1.974,1.974,0,0,0,.9-.69v-4.111Z" transform="translate(-544.02 -330.051)" fill="#4c4981"/><path d="M743.3,491.33s.8,3.218.289,3.563Z" transform="translate(-570.816 -360.82)" opacity="0.1"/><path d="M805.078,559.629c-4.279.147-13.709.331-14.13-.848a3.214,3.214,0,0,1-.147-.93l13.98.792Z" transform="translate(-605.822 -408.46)" opacity="0.1"/><path d="M801.855,661.383s-.263.786-.623,1.818c-1.776-.116-4.127-.238-6.36-.255-.789,0-1.563,0-2.294.028a16.133,16.133,0,0,0-3.748.447,9.286,9.286,0,0,1-3.341.464c-.289-1.2-.489-2.056-.489-2.056s4.861-.438,7.81-.591l.232-1.759Z" transform="translate(-601.548 -481.232)" opacity="0.1"/><path d="M796.724,576.788l-.547,1.244s-.076.37-.174.959a26.307,26.307,0,0,0-.405,5.372,45.661,45.661,0,0,1-.355,6.707s-11.837-1.072-15.309,0-5.182,0-5.182,0,.421-4.01-.61-6.085c-.7-1.414-1.2-7.725-1.213-11.876a11.222,11.222,0,0,1,.313-3.659c.708-.933,3.73-10.27,3.73-10.27l.689.04,1.841.1,10.469.594,1.644.093.174.566Z" transform="translate(-592.652 -409.325)" fill="#444053"/><path d="M869.657,594.276l.1,1.108s-5.184-1.815-4.921-4.047,0-1.979,0-1.979l4.166.379Z" transform="translate(-660.375 -431.007)" fill="#4c4981"/><path d="M869.657,594.276l.1,1.108s-5.184-1.815-4.921-4.047,0-1.979,0-1.979l4.166.379Z" transform="translate(-660.375 -431.007)" opacity="0.1"/><path d="M754.246,492.209a4.519,4.519,0,0,0,1.826,1.021,1.161,1.161,0,0,1-.526-.283c-.371-.283-.723-.591-1.081-.891a3.4,3.4,0,0,0-1-.747A5.811,5.811,0,0,0,754.246,492.209Z" transform="translate(-578.304 -360.81)" opacity="0.1"/><path d="M752.751,496.136a2.527,2.527,0,0,1,.4.681,4.417,4.417,0,0,1-.029,2.141l-.831-2.155c-.145-.368-.289-.735-.463-1.086-.076-.15-.555-.775-.5-.9C751.475,494.445,752.6,495.929,752.751,496.136Z" transform="translate(-576.729 -363.271)" opacity="0.1"/><path d="M835.59,539.911a2.6,2.6,0,0,0,1.512-.761c-.855.116-1.665.478-2.507.667a3.485,3.485,0,0,1-2.336-.232A5.371,5.371,0,0,0,835.59,539.911Z" transform="translate(-636.376 -395.071)" opacity="0.1"/><path d="M823.983,512.514a.555.555,0,0,1-.434-.116q-.963-.594-1.9-1.238a12.618,12.618,0,0,1-1.86-1.38A9.367,9.367,0,0,0,823.983,512.514Z" transform="translate(-627.187 -374.034)" opacity="0.1"/><path d="M837.609,543.657a3.731,3.731,0,0,0,1-.088,1.343,1.343,0,0,0,.826-.582.445.445,0,0,0-.35.059,5.526,5.526,0,0,1-3.23.416A4.353,4.353,0,0,0,837.609,543.657Z" transform="translate(-639.03 -397.81)" opacity="0.1"/><path d="M796.412,601.41a9.908,9.908,0,0,1-2.055.433,11.55,11.55,0,0,1-1.625-.034l-2.63-.178-1.315-.091c-.155,0-.789,0-.476-.336.158-.164,1.036-.059,1.263-.068q.655-.023,1.315-.025c.871,0,1.744,0,2.615.057C794.478,601.217,795.438,601.3,796.412,601.41Z" transform="translate(-603.924 -439.443)" opacity="0.1"/><path d="M790.876,606.453a9.976,9.976,0,0,0-1.483.328,9.193,9.193,0,0,1-1.552.065,8.131,8.131,0,0,1-2.991-.656C786.857,606.3,788.869,606.365,790.876,606.453Z" transform="translate(-601.437 -443.081)" opacity="0.1"/><path d="M783.774,612.13a4.067,4.067,0,0,1,.573.17,6.283,6.283,0,0,0,3.419-.26,1.975,1.975,0,0,1-1.3.775,5.6,5.6,0,0,1-2.525.1c-.263-.057-.923-.158-1.052-.452C782.677,612.029,783.527,612.088,783.774,612.13Z" transform="translate(-599.969 -447.269)" opacity="0.1"/><path d="M805.364,618.672a8.122,8.122,0,0,1,.984.283,7.774,7.774,0,0,0,3.8-.433,16.5,16.5,0,0,1,4.6-.458,4.329,4.329,0,0,0-.986.348c-.355.116-.715.223-1.076.32a20.762,20.762,0,0,1-6.56.656,5.975,5.975,0,0,1-2.417-.331A2.513,2.513,0,0,1,805.364,618.672Z" transform="translate(-615.336 -451.572)" opacity="0.1"/><path d="M783.151,465.349a19.589,19.589,0,0,1-.418,4.637c-.152.452-.389,1.287-.647,2.223-.281,1.038-.589,2.2-.826,3.11s-.395,1.521-.395,1.521-1.086,9.512-1.368,14.045a1.191,1.191,0,0,1-.016.238c-.016.254-.042.52-.081.795-.626,4.5-4.238,11.444-5.45,12a3.614,3.614,0,0,0-1.021.755,11.216,11.216,0,0,1,.313-3.659c.708-.933,3.73-10.27,3.73-10.27l.689.04c-.016-.13-.026-.283-.032-.416a19.465,19.465,0,0,1,.726-4.567s.45-5.534.45-5.774-.387-4.117-.387-4.117l.774-3.11,1.481-1.114c.184-2.4.623-5.316,1.673-6.111a4.458,4.458,0,0,0,1.223-1.666c.208.031-.171-.167-.171-.167Z" transform="translate(-592.652 -340.97)" opacity="0.1"/><path d="M761.217,462.839a1.8,1.8,0,0,0-1.628.2,3.819,3.819,0,0,1-2.575.416,32.556,32.556,0,0,0-4.735-.52c-.329.139-.965-.484-1.384.348s-.61,1.278-1.029,1.484-1.16.865-1.052,1-1.052.967-1.052.967l2.346,8.2s-1.513,10.372-2.252,11.271-7.3,12.552-4.953,14.628a46.684,46.684,0,0,0,5.887,4.242c.263.139,1.189-1.728,2.475-2.316s5.276-8.37,5.524-12.8,1.384-14.28,1.384-14.28,1.384-5.4,1.865-6.849a19.6,19.6,0,0,0,.418-4.637Z" transform="translate(-570.153 -340.242)" fill="#4c4981"/><path d="M844.222,514.6l-.547,1.244s-.076.37-.174.959a.477.477,0,0,1-.263-.127c-.8-.693-5.524-5.913-5.758-10.547-.166-3.419-.087-6.365-.034-7.677.016-.413.032-.662.032-.715h0s3.667-4.773,3.249-6.464-1.384-10.745-1.384-10.745l-.142-1.188-.245-2.008-.584-4.858.6.153a1.83,1.83,0,0,0,.366.4l.626,4.272,2.173,2.573.355,15.665-1,2.8s-.813.04-2.081.082h-.124Z" transform="translate(-640.15 -347.21)" opacity="0.1"/><path d="M847.234,488.214s-.9-.382-.963,0-.226,1.207-.226,1.207.16,2.008-.526,2.8-.789,4.148-.789,4.148-1.084,3.32-.571,4.358a29.832,29.832,0,0,1,.765,4.524c.184,1.414.366,2.966.526,4.386.292,2.579.51,4.714.51,4.714s-.581,2.282-1.386,1.589-5.524-5.913-5.755-10.547c-.158-3.255-.095-6.082-.042-7.476.021-.591.042-.925.042-.925s3.667-4.773,3.248-6.467-1.384-10.745-1.384-10.745l-.168-1.4-.181-1.5-.042-.331-.581-4.807h0c.1.026,3.711.9,4.188,1.414s3.42,1.244,3.42,1.244a2.683,2.683,0,0,1,1.825,2.013c.029.1.05.2.071.3.387,2.008.263,2.248.526,2.6S847.234,488.214,847.234,488.214Z" transform="translate(-641.137 -346.687)" fill="#4c4981"/><path d="M855.36,594.636c-1.315-.283-3.267-.936-3.222-2.378.039-1.349,1.549-1.835,2.694-2.008C855.016,591.658,855.2,593.216,855.36,594.636Z" transform="translate(-651.025 -431.656)" opacity="0.1"/><path d="M859.978,593.142c-.053.122-.263.226-.563.319a14.192,14.192,0,0,1-2.138.376s-4.472-.382-4.409-2.562c.047-1.564,2.068-1.979,3.2-2.073a6.889,6.889,0,0,1,.755-.034S860.17,592.7,859.978,593.142Z" transform="translate(-651.564 -430.881)" fill="#ae6e79"/><path d="M868.271,593.142c-.053.122-.263.226-.563.319-1.165-1.677-2.791-3.829-3.588-4.018l.242-.24a6.887,6.887,0,0,1,.755-.034S868.463,592.7,868.271,593.142Z" transform="translate(-659.856 -430.882)" opacity="0.1"/><path d="M867.69,497.69l1.315.209a24.846,24.846,0,0,0,1.578,2.593,2.956,2.956,0,0,1,.579,1.66s1.931,3.076,2.541,3.421,1.544,2.7,1.544,2.7,1.512,1.072,1.512,2.282a21.835,21.835,0,0,0,.289,3.009,9.041,9.041,0,0,1-.868,3.393,12.193,12.193,0,0,0-1.255,3.868c.034.424-1.8,2.63-2.315,3.32a14.334,14.334,0,0,0-1.126,2.042l-1.7,3.458s-3.6-5.706-4.921-6.017a10.488,10.488,0,0,1,2.217-1.8c.739-.277,1.449-2.545,1.481-3.076s.676-2.248,1.35-2.545,1.031-.622.742-1.108a2.211,2.211,0,0,1,0-1.414s-1.9-2.7-2.157-4.242a4.522,4.522,0,0,0-1.994-2.593l-1-2.63Z" transform="translate(-660.401 -365.302)" fill="#4c4981"/><path d="M890.443,540.658a4.01,4.01,0,0,1,2.6-1.057,3.044,3.044,0,0,0-1.7.715,4.285,4.285,0,0,0-.471.645c-.153.235-1.394,1.931-1.578,1.663C888.983,542.23,890.193,540.887,890.443,540.658Z" transform="translate(-678.369 -395.388)" opacity="0.1"/><path d="M882.73,523.593a1.12,1.12,0,0,0,.918-.7,4.159,4.159,0,0,0,.287-1.227,19.559,19.559,0,0,1,.4-2.1,1.037,1.037,0,0,0-.055-.848,2.964,2.964,0,0,0-.284-.628,3.968,3.968,0,0,0-.4,1.321c-.121.469-.231.942-.337,1.414C883.2,521.051,882.761,523.593,882.73,523.593Z" transform="translate(-673.571 -379.979)" opacity="0.1"/><path d="M825.118,430.426a2.834,2.834,0,0,1-.445.492c-.526.45-1.223.829-1.289,1.538a1.767,1.767,0,0,1-.079.681c-.168.311-.581.283-.91.223a1.511,1.511,0,0,1-.771-.305c-.345-.317-.376-.882-.639-1.281a1.576,1.576,0,0,0-1.315-.625c-.492-.017-.981.1-1.473.124a3.774,3.774,0,0,1-.944-.068,2.818,2.818,0,0,1-.305-.068,3.739,3.739,0,0,1-.642-.235,2.741,2.741,0,0,1-.313-.158,4.163,4.163,0,0,1-.907-.679,2.5,2.5,0,0,1-.842-1.835c.024-.433.205-.831.263-1.258a4.075,4.075,0,0,0-1.376-3.249c-.326-.348-.673-.684-1-1.038a5.188,5.188,0,0,1-1.176-1.8,5.749,5.749,0,0,1-.21-2.262,16.826,16.826,0,0,0,.061-2.324c-.242-2.749-2.425-4.855-4.609-6l-.1-.054a6.712,6.712,0,0,1,7.134-2.318,7.351,7.351,0,0,1,5.044,5.9,7.816,7.816,0,0,1-2.748,7.448c-.024.088-.045.175-.063.26a6.063,6.063,0,0,0,.205,4.216h0c.1.025,3.712.9,4.188,1.414s3.419,1.244,3.419,1.244A2.682,2.682,0,0,1,825.118,430.426Z" transform="translate(-617.098 -300.857)" opacity="0.1"/><path d="M803.807,399.748c.145-.178.363-.269.51-.441.455-.532,0-1.4.166-2.1a1.6,1.6,0,0,1,1.81-1.035c.742.082,1.436.45,2.178.54a9,9,0,0,0,3.391-.712,3.084,3.084,0,0,1,3.254.594c.773.925.721,2.5,1.683,3.17a9.141,9.141,0,0,0,1.486.565,3.164,3.164,0,0,1,1.257,1.292,7.175,7.175,0,0,1,.952,4.329c-.082.82-.3,1.617-.392,2.437a7.613,7.613,0,0,0,.158,2.545,2.7,2.7,0,0,0,1.428,2.036,2.3,2.3,0,0,1,.526.2c.455.305.395,1.024.279,1.584l-.468,2.321c.45.368,1.15.209,1.578.6a1.432,1.432,0,0,1,.368.622,3.559,3.559,0,0,1-.944,3.716c-.526.45-1.223.828-1.289,1.535a1.712,1.712,0,0,1-.079.682c-.166.311-.581.283-.91.223a1.513,1.513,0,0,1-.768-.305c-.347-.317-.376-.882-.639-1.281a1.581,1.581,0,0,0-1.315-.625c-.495-.017-.981.1-1.476.127a4.184,4.184,0,0,1-3.1-1.2,2.5,2.5,0,0,1-.844-1.838c.024-.43.205-.831.263-1.258a4.088,4.088,0,0,0-1.376-3.249,8.515,8.515,0,0,1-2.178-2.842c-.5-1.439-.016-3.045-.15-4.572-.242-2.751-2.422-4.855-4.608-6C804.07,401.122,803.241,400.441,803.807,399.748Z" transform="translate(-615.267 -292.364)" fill="#444053"/><path d="M820.951,424.431c-.347-.32-.376-.882-.639-1.281a1.586,1.586,0,0,0-1.315-.628c-.495-.017-.984.1-1.476.127a4.171,4.171,0,0,1-3.112-1.207,2.5,2.5,0,0,1-.842-1.835c.024-.433.205-.834.263-1.258a4.081,4.081,0,0,0-1.376-3.252,8.549,8.549,0,0,1-2.178-2.842c-.5-1.436,0-3.043-.147-4.572-.245-2.751-2.425-4.855-4.608-6-.51-.269-1.339-.95-.773-1.643.142-.178.36-.269.508-.441.455-.529,0-1.4.168-2.1a1.192,1.192,0,0,1,.166-.387,1.428,1.428,0,0,0-1.186,1.009c-.161.7.289,1.569-.166,2.1-.147.172-.366.263-.51.438-.566.693.263,1.377.773,1.643,2.186,1.148,4.366,3.255,4.608,6,.134,1.53-.35,3.136.15,4.575a8.433,8.433,0,0,0,2.178,2.842,4.044,4.044,0,0,1,1.375,3.249,11.586,11.586,0,0,0-.263,1.258,2.5,2.5,0,0,0,.844,1.835,4.162,4.162,0,0,0,3.109,1.207c.495-.026.981-.141,1.476-.127a1.588,1.588,0,0,1,1.315.628c.263.4.292.964.639,1.281a1.512,1.512,0,0,0,.768.3c.329.065.744.088.91-.221a.816.816,0,0,0,.074-.407A1.45,1.45,0,0,1,820.951,424.431Z" transform="translate(-615.209 -293.3)" opacity="0.1"/><path d="M599.741,145.477H581.547V126.2h18.207Zm-.263-29.06H581.81c0-29.951,26.483-28.2,26.483-47.149,0-10.437-7.946-18.8-17.655-18.8s-17.652,9.015-17.652,19.1H555.33a39.385,39.385,0,0,1,10.324-26.858,34.043,34.043,0,0,1,24.984-11.1c19.5,0,35.307,16.726,35.307,37.659,0,23.693-26.48,26.391-26.48,47.149Z" transform="translate(-432.289 -31.61)" fill="#6c63ff"/><path d="M347.137,339.411h-4.693v-4.982h4.693Zm-.071-7.493h-4.551c0-7.72,6.826-7.27,6.826-12.159a4.7,4.7,0,0,0-4.55-4.849,4.835,4.835,0,0,0-4.54,4.92H335.7c-.021-5.4,4.039-9.8,9.067-9.825s9.12,4.343,9.139,9.748c-.014,6.108-6.84,6.8-6.84,12.153Z" transform="translate(-270.43 -230.933)" fill="#6c63ff" opacity="0.1"/><path d="M482.158,461.85h-4.693v-4.968h4.693Zm-.068-7.49h-4.55c0-7.722,6.826-7.27,6.826-12.159a5.054,5.054,0,0,0-1.341-3.437,4.369,4.369,0,0,0-3.21-1.409,4.833,4.833,0,0,0-4.564,4.926H470.7c-.021-5.4,4.039-9.8,9.067-9.825s9.119,4.343,9.139,9.748C488.912,448.311,482.089,449.01,482.089,454.36Z" transform="translate(-369.92 -318.603)" fill="#6c63ff" opacity="0.1"/><path d="M573.156,265.673h-3.4v-3.594h3.4Zm-.05-5.432h-3.3c0-5.593,4.948-5.268,4.948-8.808a3.41,3.41,0,0,0-3.3-3.512,3.5,3.5,0,0,0-3.3,3.569h-3.3a6.614,6.614,0,1,1,13.194-.057C578.048,255.859,573.106,256.365,573.106,260.242Z" transform="translate(-439.312 -183.95)" fill="#6c63ff" opacity="0.1"/><path d="M804.071,307.388h-1.923v-2.036h1.923Zm-.029-3.068h-1.875c0-3.161,2.8-2.978,2.8-4.979a2.057,2.057,0,0,0-.547-1.408,1.776,1.776,0,0,0-1.316-.572,1.98,1.98,0,0,0-1.865,2.016H799.37a3.733,3.733,0,1,1,7.457-.031C806.838,301.832,804.042,302.129,804.042,304.32Z" transform="translate(-612.138 -220.543)" fill="#6c63ff" opacity="0.1"/><path d="M915.86,634.859h-1.923v-2.036h1.923Zm-.029-3.068h-1.865c0-3.164,2.8-2.978,2.8-4.979a1.926,1.926,0,0,0-1.865-1.979,1.978,1.978,0,0,0-1.865,2.016H911.17a3.733,3.733,0,1,1,7.457-.031c.01,2.5-2.786,2.782-2.786,4.974Z" transform="translate(-694.53 -455.035)" fill="#6c63ff" opacity="0.1"/></g></svg>